<?xml version="1.0" encoding="UTF-8"?>
<svg width="293px" height="176px" viewBox="0 0 293 176" version="1.1" xmlns="http://www.w3.org/2000/svg" xmlns:xlink="http://www.w3.org/1999/xlink">
    <title>7C786D9E-7855-4D66-ADD1-E19D6C8FEAB7</title>
    <defs>
        <path d="M68.31295,35.2674667 C68.4193177,41.5792323 66.9205265,47.8143923 63.957505,53.3866667 C61.1621943,58.6050557 56.9371884,62.9162792 51.77896,65.8137333 C40.954229,71.671636 27.9209495,71.7239253 17.04967,65.9530667 C11.9620246,63.1727429 7.77684716,58.9909479 4.98979,53.9029333 C2.06396994,48.5197312 0.57917793,42.4702276 0.67976,36.3425333 C0.578724747,29.9161177 2.07597776,23.5654619 5.03667,17.8625333 C7.79828201,12.5385977 12.0449307,8.13222214 17.26063,5.1788 C22.7303099,2.13802667 28.9045951,0.595987805 35.16,0.7084 C41.1884051,0.607823383 47.1382837,2.08725219 52.419165,4.99986667 C57.4601296,7.82564927 61.5509402,12.0844424 64.174325,17.2377333 C67.002454,22.8196179 68.4233142,29.0095317 68.31295,35.2674667 L68.31295,35.2674667 Z M46.860955,35.8292 C46.860955,30.2969333 45.7993183,25.9365333 43.676045,22.748 C41.8322342,19.7125169 38.5130041,17.8900609 34.965155,17.9652 C31.2538629,17.8093394 27.7141724,19.5370808 25.551065,22.5602667 C23.3047317,25.6226667 22.181565,29.9522667 22.181565,35.5490667 C22.181565,41.0187556 23.297895,45.2857778 25.530555,48.3501333 C27.5934994,51.3277376 31.0220233,53.0571981 34.639925,52.9452 C36.9160683,52.9667577 39.1367255,52.2420081 40.962865,50.8816 C42.942979,49.3638084 44.4530957,47.3154834 45.31831,44.9738667 C46.4110666,42.0522247 46.9347164,38.9480739 46.860955,35.8292 L46.860955,35.8292 Z" id="path-1"></path>
        <polygon id="path-3" points="15.01918 30.6474667 33.087025 30.6474667 18.58792 0.498666667 0.51861 0.498666667"></polygon>
        <filter x="-59.9%" y="-54.7%" width="219.7%" height="229.4%" filterUnits="objectBoundingBox" id="filter-4">
            <feOffset dx="0" dy="3" in="SourceAlpha" result="shadowOffsetOuter1"></feOffset>
            <feGaussianBlur stdDeviation="6" in="shadowOffsetOuter1" result="shadowBlurOuter1"></feGaussianBlur>
            <feColorMatrix values="0 0 0 0 0   0 0 0 0 0   0 0 0 0 0  0 0 0 0.5 0" type="matrix" in="shadowBlurOuter1"></feColorMatrix>
        </filter>
        <path d="M0.654855,1.61561092 L0.9376,2.20227759 C0.9376,2.20227759 5.19489,7.71254425 6.257015,11.2956109 C6.91989453,13.9653296 7.19618409,16.7165503 7.077415,19.4649443 C8.77578346,17.5369799 9.81060924,15.1138125 10.02939,12.5525443 C9.95226683,9.8205607 9.52640274,7.10967382 8.762165,4.48587759 L10.030855,1.82681092 L8.126355,0.360144255 L0.654855,1.61561092 Z" id="path-5"></path>
    </defs>
    <g id="WEB" stroke="none" stroke-width="1" fill="none" fill-rule="evenodd">
        <g id="Support-UI" transform="translate(-126.000000, -408.000000)">
            <g id="card1" transform="translate(68.000000, 408.000000)">
                <g id="Fragments/Illustrations/Pictograms/News-Edge" transform="translate(58.000000, 0.000000)">
                    <g id="Group-3" transform="translate(48.345000, 68.933333)">
                        <g id="Capa_77" transform="translate(2.930000, 66.000000)" fill="#DADADA" fill-rule="nonzero">
                            <rect id="Rectangle" x="0.654855" y="0.353466667" width="191.58391" height="4.24306667" rx="1.94016479"></rect>
                        </g>
                        <path d="M169.648465,68.9069333 L166.70235,56.5282667 L146.65236,56.5282667 L143.46745,68.9069333 L121.595,68.9069333 L144.72735,1.66613333 L169.835985,1.66613333 L191.614675,68.9069333 L169.648465,68.9069333 Z M156.902965,16.2961333 L156.44735,16.2961333 C156.299511,17.5426139 156.080378,18.7795788 155.79103,20.0009333 C155.41599,21.7198667 153.527117,29.0972 150.12441,42.1329333 L162.95781,42.1329333 L158.26981,23.8450667 C157.650577,21.3615098 157.195925,18.8397063 156.908825,16.2961333 L156.902965,16.2961333 Z" id="Shape" fill="#FFB900" fill-rule="nonzero"></path>
                        <path d="M90.666,70.4 C93.9975745,70.4 97.4717163,69.8768263 101.088426,68.8304788 C104.705135,67.7841313 107.518965,66.4724058 109.529915,64.8953023 L112.924297,68.9333333 L132.958765,68.9333333 L120.425064,55.1142279 C123.186369,52.2329812 125.182312,49.0408631 126.412894,45.5378737 C127.643475,42.0348842 128.258766,38.0845433 128.258766,33.686851 L113.58183,33.686851 C113.58183,38.3271746 112.906511,42.0121376 111.555872,44.7417397 L102.371532,34.2327714 C106.87366,32.1400764 110.160213,29.7895857 112.231191,27.1812992 C114.30217,24.5730127 115.33766,21.4642991 115.33766,17.8551585 C115.33766,13.3361504 113.589333,9.71942759 110.092681,7.00498989 C106.596028,4.29055218 101.981348,2.93333333 96.2486383,2.93333333 C90.2157872,2.93333333 85.3159716,4.44977898 81.5491915,7.48267026 C77.7824113,10.5155615 75.8990213,14.4583202 75.8990213,19.3109463 C75.8990213,24.1029145 78.0450355,28.8948827 82.3370638,33.686851 C77.2946809,36.2344797 73.5429078,39.070233 71.0817447,42.194111 C68.6205816,45.3179891 67.39,48.5935117 67.39,52.0206788 C67.39,57.8135012 69.4309645,62.3249269 73.5128936,65.5549562 C77.5948227,68.7849854 83.3125248,70.4 90.666,70.4 Z M94.4927175,25.9007092 C92.705432,23.5117668 91.5650371,21.806502 91.0715329,20.7849148 C90.5780287,19.7633276 90.3312766,18.7653155 90.3312766,17.7908785 C90.3312766,16.2820728 90.7314151,15.1033183 91.5316922,14.2546151 C92.3319693,13.4059119 93.3990054,12.9815603 94.7328006,12.9815603 C95.8531885,12.9815603 96.833528,13.4609204 97.6738189,14.4196407 C98.5141098,15.378361 98.9342553,16.5335404 98.9342553,17.8851789 C98.9342553,19.4882849 98.6074755,20.9263654 97.9539159,22.1994202 C97.3003563,23.472475 96.1466235,24.706238 94.4927175,25.9007092 Z M93.591029,58.9163121 C91.0693338,58.9163121 88.9397313,58.112766 87.2022218,56.5056738 C85.4647122,54.8985816 84.5959574,52.7687943 84.5959574,50.1163121 C84.5959574,48.212766 85.0341789,46.4886525 85.9106218,44.9439716 C86.7870646,43.3992908 87.8710861,42.3148936 89.1626861,41.6907801 L89.1626861,41.6907801 L101.801915,56.1546099 C100.817839,56.9659574 99.5954315,57.629078 98.1346934,58.1439716 C96.6739553,58.6588652 95.1594005,58.9163121 93.591029,58.9163121 Z" id="&amp;" fill="#FFB900" fill-rule="nonzero"></path>
                        <g id="Group-2">
                            <path d="M68.31295,35.2674667 C68.4193177,41.5792323 66.9205265,47.8143923 63.957505,53.3866667 C61.1621943,58.6050557 56.9371884,62.9162792 51.77896,65.8137333 C40.954229,71.671636 27.9209495,71.7239253 17.04967,65.9530667 C11.9620246,63.1727429 7.77684716,58.9909479 4.98979,53.9029333 C2.06396994,48.5197312 0.57917793,42.4702276 0.67976,36.3425333 C0.578724747,29.9161177 2.07597776,23.5654619 5.03667,17.8625333 C7.79828201,12.5385977 12.0449307,8.13222214 17.26063,5.1788 C22.7303099,2.13802667 28.9045951,0.595987805 35.16,0.7084 C41.1884051,0.607823383 47.1382837,2.08725219 52.419165,4.99986667 C57.4601296,7.82564927 61.5509402,12.0844424 64.174325,17.2377333 C67.002454,22.8196179 68.4233142,29.0095317 68.31295,35.2674667 L68.31295,35.2674667 Z M46.860955,35.8292 C46.860955,30.2969333 45.7993183,25.9365333 43.676045,22.748 C41.8322342,19.7125169 38.5130041,17.8900609 34.965155,17.9652 C31.2538629,17.8093394 27.7141724,19.5370808 25.551065,22.5602667 C23.3047317,25.6226667 22.181565,29.9522667 22.181565,35.5490667 C22.181565,41.0187556 23.297895,45.2857778 25.530555,48.3501333 C27.5934994,51.3277376 31.0220233,53.0571981 34.639925,52.9452 C36.9160683,52.9667577 39.1367255,52.2420081 40.962865,50.8816 C42.942979,49.3638084 44.4530957,47.3154834 45.31831,44.9738667 C46.4110666,42.0522247 46.9347164,38.9480739 46.860955,35.8292 L46.860955,35.8292 Z" id="Shape" fill="#FFB900" fill-rule="nonzero"></path>
                            <g id="Clipped">
                                <mask id="mask-2" fill="white">
                                    <use xlink:href="#path-1"></use>
                                </mask>
                                <use id="Shape" fill="#FFB900" xlink:href="#path-1"></use>
                                <g id="Group" mask="url(#mask-2)" fill-rule="nonzero">
                                    <g transform="translate(27.835000, 39.600000)" id="Path">
                                        <use fill="black" fill-opacity="1" filter="url(#filter-4)" xlink:href="#path-3"></use>
                                        <use fill="#FFB900" xlink:href="#path-3"></use>
                                    </g>
                                </g>
                            </g>
                            <polygon id="Path" fill="#FFB900" fill-rule="nonzero" points="42.85418 70.2474667 60.922025 70.2474667 46.42292 40.0986667 28.35361 40.0986667"></polygon>
                        </g>
                    </g>
                    <g id="Group-4" transform="translate(145.035000, 33.733333)" fill-rule="nonzero">
                        <polygon id="Path" fill="#FFFFFF" points="12.56677 37.7600441 10.608065 37.7600441 11.16623 39.4628441 13.12347 39.4628441"></polygon>
                        <path d="M42.465955,17.7459107 C42.465955,18.0935325 42.2567906,18.4069253 41.9359949,18.5399544 C41.6151992,18.6729835 41.2459473,18.5994512 41.0004209,18.3536454 C40.7548945,18.1078397 40.6814457,17.7381677 40.8143237,17.4170071 C40.9472016,17.0958464 41.2602382,16.8864441 41.607465,16.8864441 C42.0815959,16.8864441 42.465955,17.2712404 42.465955,17.7459107" id="Path" fill="#C2C2C2"></path>
                        <path d="M23.602615,5.80724405 C23.3219519,4.5359504 22.3151561,3.55219982 21.038865,3.30217738 C22.314971,3.05180185 23.3216038,2.06821052 23.602615,0.797110717 C23.8827123,2.06817988 24.8889894,3.05198584 26.1649,3.30217738 C24.8886183,3.55166113 23.8820143,4.53578672 23.602615,5.80724405" id="Path" fill="#C2C2C2"></path>
                        <path d="M5.524515,22.4891107 C5.524515,22.8390383 5.24116497,23.1227107 4.891635,23.1227107 C4.54210503,23.1227107 4.258755,22.8390383 4.258755,22.4891107 C4.258755,22.1391831 4.54210503,21.8555107 4.891635,21.8555107 C5.24116497,21.8555107 5.524515,22.1391831 5.524515,22.4891107" id="Path" fill="#C2C2C2"></path>
                        <path d="M2.37769493,16.1399107 L2.37769493,35.0496441 C2.37769493,36.6534752 3.23191595,38.1355998 4.619145,38.9377774 L20.97587,48.3919107 C22.3632563,49.1941793 24.0728487,49.1941793 25.460235,48.3919107 L41.81696,38.9377774 C43.2045318,38.1357511 44.059875,36.6536966 44.059875,35.0496441 L44.059875,16.1399107 C44.059875,14.5362199 43.2045209,13.0545653 41.81696,12.2532441 L25.460235,2.79764405 C24.0724445,1.99688621 22.3636605,1.99688621 20.97587,2.79764405 L4.619145,12.2532441 C3.23192673,13.0547166 2.37769493,14.5364414 2.37769493,16.1399107" id="Path" fill="#E26DBB"></path>
                        <path d="M16.44316,15.7101774 L17.76166,15.3831107 C17.76166,15.3831107 19.08016,18.9192441 17.153685,21.2160441 C17.3286897,19.3508118 17.0864705,17.469974 16.444625,15.7101774" id="Path" fill="#E6E6E6"></path>
                        <path d="M38.270195,40.9881774 C37.977195,37.4535107 37.473235,32.1881774 36.79494,28.3983107 C36.3082289,24.4706978 33.0870713,21.4526346 29.140315,21.2263107 C24.6213481,21.1985582 20.1161961,21.7285996 15.726775,22.8044441 C13.1084561,23.6463534 11.1869707,25.8928113 10.75896,28.6124441 L8.800255,41.3533774 L20.977335,48.3933774 C22.364187,49.1956869 24.073383,49.1956869 25.460235,48.3933774 L38.270195,40.9881774 Z" id="Path" fill="#C6381C"></path>
                        <path d="M31.644,32.9508441 C31.42132,39.2164441 29.310255,40.7417774 28.284755,43.4448441 C27.8759126,44.5703113 27.7511091,45.7794613 27.921435,46.9648441 L33.019635,44.0183107 C32.7599539,40.3066136 32.3007436,36.6116157 31.644,32.9493774" id="Path" fill="#99280D"></path>
                        <path d="M15.726775,22.8044441 C13.1084561,23.6463534 11.1869707,25.8928113 10.75896,28.6124441 L8.800255,41.3548441 L14.159225,44.4509774 L14.200245,43.4756441 C14.2279616,42.7601624 14.0613908,42.0505441 13.71826,41.4223107 L12.98576,40.0861774 C11.8474246,38.0097754 11.8139344,35.502848 12.896395,33.3967107 L13.435515,32.3480441 C13.9676504,31.3122745 14.2453811,30.1643892 14.24566,28.9996441 C14.2457535,26.7310525 15.525695,24.6570846 17.552165,23.6419107 L17.367575,22.3776441 C16.755205,22.5155107 16.195575,22.6607107 15.726775,22.8176441" id="Path" fill="#E04110"></path>
                        <path d="M24.01721,1.47911072 L24.01721,1.47911072 C21.9792322,1.20754355 19.9169854,1.75783068 18.2843706,3.00885375 C16.6517559,4.25987682 15.582584,6.10910071 15.31218,8.14951072 L15.331225,12.1271107 C16.210225,16.5271107 16.851895,19.4208441 19.59291,20.1351107 C19.535775,20.6924441 19.45813,21.3084441 19.357045,21.8393774 C18.624545,22.0109774 17.873,22.2045774 17.139035,22.4260441 L17.552165,23.6375107 C18.4128797,26.1835785 20.8918112,27.8183639 23.5682105,27.6049231 C26.2446097,27.3914824 28.4337664,25.3844205 28.88101,22.7340441 L29.140315,21.2277774 C28.89859,21.2028441 27.968315,21.1104441 27.26072,21.0473774 L26.52822,19.4340441 C28.3035823,18.3585201 29.5738426,16.6150105 30.054475,14.5940441 C30.11454,14.3388441 30.786975,14.1408441 30.825065,13.8753774 L31.581005,10.6912441 C32.14503,6.43791072 28.25985,2.03791072 24.015745,1.47764405" id="Path" fill="#D8B094"></path>
                        <path d="M20.59204,20.2993774 C20.6127095,21.1413967 20.4366264,21.9766086 20.077825,22.7384441 C19.767245,23.4380441 17.55363,23.6360441 17.55363,23.6360441 L17.139035,22.4245774 C17.139035,22.4245774 18.08396,22.1591107 18.96296,21.9376441 C19.2215533,21.8715519 19.4144191,21.6552733 19.450805,21.3905774 C19.5011319,20.9728909 19.5294944,20.5528448 19.535775,20.1321774 C20.121775,20.2275107 20.28439,20.2641774 20.59204,20.2993774" id="Path" fill="#E5CBB8"></path>
                        <path d="M26.541405,19.4208441 C25.030939,20.3448878 23.2488376,20.7203576 21.49448,20.4841774 C21.337725,20.4753774 21.18683,20.4607107 21.038865,20.4445774 C21.566265,21.3744441 23.43707,23.7533774 28.396095,22.7912441 C27.5735277,21.7954536 26.9444602,20.6542825 26.541405,19.4267107" id="Path" fill="#BC967D"></path>
                        <path d="M17.9609,12.1373774 L18.885315,11.0373774 C19.2077435,10.6539776 19.2961205,10.1252522 19.1159382,9.65764913 C18.9357558,9.19004606 18.51559,8.8577246 18.0195,8.79044405 L16.72444,8.61737738 C16.186785,8.54697738 15.759005,9.31404405 15.310715,9.54431072 L15.260905,10.6648441 C15.237465,14.3696441 15.50556,17.5787107 18.30957,19.5440441 C17.8443746,17.8689006 18.2153558,16.0719642 19.30577,14.7187107 C19.5001628,14.4810321 19.5509129,14.1566683 19.4384242,13.8708655 C19.3259356,13.5850628 19.067811,13.3825452 18.76372,13.3415107 L18.410655,13.2931107 C18.1552476,13.2589243 17.93872,13.0881684 17.8457075,12.8475875 C17.7526951,12.6070067 17.797968,12.3348041 17.96383,12.1373774" id="Path" fill="#E5CBB8"></path>
                        <path d="M17.04967,15.0487107 C17.5589515,16.2085683 18.6356447,17.0184909 19.8901499,17.1854091 C21.144655,17.3523273 22.3952788,16.8520661 23.189485,15.8656441 L17.04967,15.0487107 Z" id="Path" fill="#FFFFFF"></path>
                        <path d="M24.373205,16.8747107 C24.6174067,16.3620808 24.5540943,15.7556874 24.2092827,15.3046952 C23.8644711,14.8537031 23.296314,14.6341736 22.738265,14.7363107 L24.373205,16.8747107 Z" id="Path" fill="#E5CBB8"></path>
                        <path d="M24.519705,43.9083107 L20.476305,31.5619107 L1.25404,31.5619107 L5.76331,45.3339107 L34.281,45.3339107 L34.281,44.2559107 L25.003155,44.2559107 C24.785188,44.2559515 24.5918979,44.1157011 24.5241,43.9083107" id="Path" fill="#B2B2B2"></path>
                        <path d="M19.222265,31.5619107 L7.88515919e-13,31.5619107 L4.50927,45.3339107 L24.41569,45.3339107 C24.0081462,45.3335609 23.6467438,45.07166 23.51911,44.6841774 L19.222265,31.5619107 Z" id="Path" fill="#939393"></path>
                        <polygon id="Path" fill="#FFFFFF" points="12.56677 37.7600441 10.608065 37.7600441 11.16623 39.4628441 13.12347 39.4628441"></polygon>
                        <path d="M11.466555,45.0552441 C11.6397767,44.7801186 11.6077624,44.4229853 11.3883769,44.1831342 C11.1689914,43.9432831 10.816454,43.8799913 10.52749,44.0285774 L8.712355,44.9789774 L9.444855,44.0755107 C9.66357234,43.7835558 9.63457157,43.3750198 9.37681072,43.1169657 C9.11904986,42.8589116 8.71097812,42.8298779 8.419355,43.0488441 L6.051915,45.1828441 C6.03878914,45.194756 6.01902863,45.1955546 6.00498643,45.1847406 C5.99094422,45.1739266 5.98664654,45.1546007 5.99478,45.1388441 L6.97047,43.2541774 C7.14921259,42.9006593 7.02409121,42.4689476 6.68410313,42.2661136 C6.34411505,42.0632795 5.9053102,42.1585575 5.679805,42.4841774 L4.361305,44.7941774 L3.628805,42.6235107 C3.37900566,42.9689915 3.3236969,43.4186096 3.482305,43.8144441 L3.839765,45.1975107 L3.962825,45.6536441 C4.02940835,45.8976586 4.1963747,46.1018812 4.42214397,46.2154537 C4.64791325,46.3290262 4.91123918,46.3412608 5.146545,46.2491107 L5.90395,45.9557774 L5.92739,45.9865774 C6.16022192,46.275287 6.50787016,46.4471712 6.87838694,46.4567693 C7.24890372,46.4663674 7.60496578,46.3127125 7.8524,46.0364441 L8.170305,45.6463107 L8.179095,45.6756441 C8.24815499,45.9228445 8.42396467,46.1262036 8.65842499,46.2300852 C8.89288531,46.3339668 9.16145237,46.3274964 9.39065,46.2124441 L9.652885,46.0819107 L11.01387,46.0819107 C11.4831464,46.0819107 11.86357,45.7010543 11.86357,45.2312441 L11.86357,45.0845774 L11.466555,45.0552441 Z" id="Path" fill="#DBAB77"></path>
                        <path d="M17.745545,10.3641774 C17.7455444,10.6354083 17.5822657,10.8799041 17.331909,10.9835621 C17.0815522,11.0872201 16.7934716,11.0296056 16.6021102,10.8376065 C16.4107489,10.6456073 16.3538311,10.3570735 16.4579195,10.1066595 C16.5620079,9.85624561 16.806583,9.69331721 17.077505,9.69391072 C17.2549343,9.69391029 17.4250753,9.76457424 17.5503993,9.89031596 C17.6757233,10.0160577 17.7459341,10.1865466 17.745545,10.3641774" id="Path" fill="#000000"></path>
                        <path d="M24.824425,11.2647107 C24.8250178,11.535941 24.6622746,11.7807943 24.4121452,11.8850011 C24.1620158,11.9892079 23.8738099,11.9322253 23.6820289,11.7406463 C23.4902479,11.5490673 23.4326989,11.2606589 23.5362391,11.0100173 C23.6397793,10.7593757 23.8839973,10.5959114 24.15492,10.5959107 C24.5237735,10.5967135 24.8228152,10.8954402 24.824425,11.2647107" id="Path" fill="#000000"></path>
                        <path d="M15.422055,8.95471072 C15.3320792,9.0259013 15.2899145,9.14181648 15.3130921,9.25426089 C15.3362696,9.3667053 15.4208242,9.45644103 15.5315994,9.48615763 C15.6423746,9.51587424 15.7604183,9.48048756 15.83665,9.39471072 C16.5868455,8.66260167 17.7806197,8.65418525 18.54104,9.37564405 C18.6656771,9.47906628 18.8493357,9.46686927 18.9592352,9.34787117 C19.0691346,9.22887307 19.0669102,9.04461486 18.95417,8.92831072 C17.9650334,7.97704633 16.3992924,7.98679865 15.422055,8.95031072" id="Path" fill="#000000"></path>
                        <path d="M32.19191,8.63937738 C33.9016951,8.27409611 35.1954014,6.8688577 35.4199177,5.13307872 C35.644434,3.39729975 34.7509284,1.70850984 33.1904758,0.919272914 C31.6300231,0.130035986 29.7420198,0.412010022 28.4796,1.62284405 C27.4094668,1.00383282 26.250867,0.552726151 25.044175,0.28524405 C17.018905,-1.62142262 14.203175,6.59924405 15.12759,8.10257738 C17.0889408,7.37075264 18.937793,6.36652654 20.619875,5.11937738 C21.2621163,6.80073279 22.398699,8.24749696 23.8795,9.26857738 C23.4272419,9.32692226 22.9948285,9.49014063 22.61667,9.74524405 C22.5191414,9.80406088 22.4625011,9.91240496 22.4698144,10.026156 C22.4771276,10.1399069 22.5471744,10.2400875 22.6514299,10.2859018 C22.7556853,10.331716 22.8767564,10.3155206 22.96534,10.2439107 C23.8108819,9.62887744 24.9894999,9.78491572 25.64629,10.5988441 C25.7042524,10.6695105 25.7908203,10.7104213 25.882155,10.7103107 C25.952307,10.7110762 26.0204047,10.6866164 26.07407,10.6413774 C26.1139619,10.6066323 26.1442356,10.5621804 26.16197,10.5123107 C26.750531,10.7494971 27.3563705,10.9412132 27.974175,11.0857774 C28.1110958,10.2775812 28.8615883,9.72224692 29.6735087,9.82833865 C30.4854291,9.93443038 31.0684068,10.6640061 30.99354,11.4803107 C31.12246,11.4803107 31.24552,11.4935107 31.37737,11.4964441 C31.44476,11.2500441 31.51508,10.9831107 31.57954,10.7000441 C31.9042671,11.985901 33.177679,12.7921955 34.47731,12.5348441 C32.25637,11.9584441 32.18898,9.52671072 32.18898,8.64671072" id="Path" fill="#000000"></path>
                        <path d="M29.746825,9.82004405 C29.8549201,9.83903097 29.9605641,9.87002234 30.0618,9.91244405 C30.031035,9.77457738 29.998805,9.65284405 29.97097,9.55164405 C29.87135,9.19524405 29.653065,9.36684405 29.38497,9.79951072 C29.5040289,9.79252908 29.6234948,9.79941973 29.740965,9.82004405" id="Path" fill="#000000"></path>
                        <path d="M30.3255,10.0473774 C30.8444296,10.388201 31.1047001,11.0103112 30.983285,11.6196441 L30.7064,13.0217774 C30.5258963,13.929525 29.6903797,14.5546608 28.76967,14.4708441 L28.33017,14.4312441 C28.0505563,14.4061624 27.8098576,14.2232967 27.710475,13.9604441 C27.631365,14.6248441 27.38671,17.1416441 28.129465,18.1169774 C28.129465,18.1169774 31.803685,15.6808441 31.95751,8.68044405 L30.3255,10.0473774 Z" id="Path" fill="#000000"></path>
                        <path d="M27.79105,14.9797774 L27.79105,14.9797774 C28.1613604,14.8880208 28.553147,14.9566001 28.8703891,15.1687076 C29.1876312,15.380815 29.4010065,15.7168458 29.45822,16.0944441 C29.7783022,17.627986 29.4297644,19.2254012 28.50011,20.4856441 C28.6751147,18.6204118 28.4328955,16.739574 27.79105,14.9797774" id="Path" fill="#FFFFFF"></path>
                    </g>
                    <polygon id="Path" fill="#FFFFFF" fill-rule="nonzero" points="228.676245 118.748667 228.34369 118.074 229.382375 117.9904 229.71493 118.665067"></polygon>
                    <polygon id="Path" fill="#FFFFFF" fill-rule="nonzero" points="228.41108 118.770667 227.469085 118.845467 227.13653 118.1708 228.078525 118.096"></polygon>
                    <polygon id="Path" fill="#FFFFFF" fill-rule="nonzero" points="228.793445 118.987733 229.83213 118.904133 230.164685 119.5788 229.126 119.6624"></polygon>
                    <polygon id="Path" fill="#FFFFFF" fill-rule="nonzero" points="228.52828 119.009733 228.860835 119.6844 227.91884 119.7592 227.586285 119.084533"></polygon>
                    <ellipse id="Oval" fill="#D2D2D2" fill-rule="nonzero" cx="41.50052" cy="103.977867" rx="1" ry="1"></ellipse>
                    <path d="M224.86871,78.4798667 C224.86871,79.09386 224.371536,79.5916 223.75824,79.5916 C223.144944,79.5916 222.64777,79.09386 222.64777,78.4798667 C222.64777,77.8658733 223.144944,77.3681333 223.75824,77.3681333 C224.371536,77.3681333 224.86871,77.8658733 224.86871,78.4798667" id="Path" fill="#FFB900" fill-rule="nonzero"></path>
                    <path d="M216.85516,79.1794667 C216.855753,79.4358666 216.701933,79.6673499 216.46549,79.7658814 C216.229046,79.8644129 215.956593,79.8105674 215.775287,79.629475 C215.593981,79.4483826 215.539565,79.1757453 215.637436,78.9388051 C215.735308,78.7018649 215.966171,78.547334 216.22228,78.5473333 C216.389995,78.5469438 216.550975,78.6133713 216.669705,78.7319616 C216.788435,78.8505518 216.85516,79.0115601 216.85516,79.1794667" id="Path" fill="#FFFFFF" fill-rule="nonzero"></path>
                    <path d="M136.776795,46.8189333 C136.776795,47.3600251 136.338652,47.7986667 135.798175,47.7986667 C135.257698,47.7986667 134.819555,47.3600251 134.819555,46.8189333 C134.819555,46.2778416 135.257698,45.8392 135.798175,45.8392 C136.338652,45.8392 136.776795,46.2778416 136.776795,46.8189333" id="Path" fill="#C2C2C2" fill-rule="nonzero"></path>
                    <path d="M20.14375,91.5434667 C19.8630869,90.272173 18.8562911,89.2884224 17.58,89.0384 C18.856106,88.7880245 19.8627388,87.8044331 20.14375,86.5333333 C20.4238473,87.8044025 21.4301244,88.7882085 22.706035,89.0384 C21.4297533,89.2878837 20.4231493,90.2720093 20.14375,91.5434667" id="Path-Copy-3" fill="#C2C2C2" fill-rule="nonzero"></path>
                    <path d="M254.617,80.1973333 C254.274469,78.6348142 253.038265,77.42486 251.47018,77.1173333 C253.038265,76.8098067 254.274469,75.5998525 254.617,74.0373333 C254.95988,75.5996585 256.195921,76.8094527 257.76382,77.1173333 C256.195921,77.425214 254.95988,78.6350081 254.617,80.1973333" id="Path" fill="#FFB900" fill-rule="nonzero"></path>
                    <path d="M234.934725,90.5050667 C234.934725,91.0631688 234.482808,91.5156 233.92534,91.5156 C233.367872,91.5156 232.915955,91.0631688 232.915955,90.5050667 C232.915955,89.9469645 233.367872,89.4945333 233.92534,89.4945333 C234.482808,89.4945333 234.934725,89.9469645 234.934725,90.5050667" id="Path" fill="#C2C2C2" fill-rule="nonzero"></path>
                    <path d="M203.4885,45.2276 C203.4885,45.5516071 203.226139,45.8142667 202.9025,45.8142667 C202.578861,45.8142667 202.3165,45.5516071 202.3165,45.2276 C202.3165,44.9035929 202.578861,44.6409333 202.9025,44.6409333 C203.226139,44.6409333 203.4885,44.9035929 203.4885,45.2276" id="Path" fill="#C2C2C2" fill-rule="nonzero"></path>
                    <path d="M198.535336,79.0122667 C198.535927,79.4230352 198.289145,79.7936593 197.910189,79.9511277 C197.531233,80.1085962 197.094833,80.021856 196.804705,79.7313985 C196.514578,79.440941 196.427936,79.0040446 196.585226,78.6246572 C196.742515,78.2452697 197.112718,77.9982068 197.52302,77.9987989 C198.081772,77.9996078 198.534528,78.4528794 198.535336,79.0122667" id="Path" fill="#FFB900" fill-rule="nonzero"></path>
                    <path d="M38.5382911,49.4868 C38.5382911,49.8831985 38.2996976,50.2405373 37.9338325,50.392095 C37.5679674,50.5436528 37.1469308,50.4595618 36.867163,50.1790559 C36.5873953,49.8985499 36.5040307,49.4769088 36.6559642,49.1108549 C36.8078976,48.744801 37.1651874,48.5064733 37.561135,48.5070656 C37.8205466,48.5070656 38.0693121,48.6103348 38.2526064,48.7941127 C38.4359007,48.9778906 38.5386789,49.2270935 38.5382911,49.4868" id="Path" fill="#C6C6C6" fill-rule="nonzero"></path>
                    <path d="M120.62227,108.046401 C120.62227,108.4428 120.383676,108.800138 120.017811,108.951696 C119.651946,109.103254 119.230909,109.019163 118.951141,108.738657 C118.671374,108.458151 118.588009,108.03651 118.739943,107.670456 C118.891876,107.304402 119.249166,107.066074 119.645113,107.066667 C119.904525,107.066667 120.153291,107.169936 120.336585,107.353714 C120.519879,107.537492 120.622657,107.786695 120.62227,108.046401" id="Path-Copy-2" fill="#C6C6C6" fill-rule="nonzero"></path>
                    <path d="M51.63246,79.9054667 C51.63246,80.4465584 51.1943169,80.8852 50.65384,80.8852 C50.1133631,80.8852 49.67522,80.4465584 49.67522,79.9054667 C49.67522,79.3643749 50.1133631,78.9257333 50.65384,78.9257333 C51.1943169,78.9257333 51.63246,79.3643749 51.63246,79.9054667" id="Path" fill="#C6C6C6" fill-rule="nonzero"></path>
                    <path d="M68.783215,72.7716 C68.783215,73.1235077 68.5713927,73.4407364 68.2465851,73.5752682 C67.9217774,73.7098 67.548,73.6351201 67.2996563,73.3860739 C67.0513127,73.1370277 66.9773486,72.7626996 67.1122755,72.4377499 C67.2472024,72.1128003 67.5644277,71.9012732 67.915935,71.9018654 C68.3951574,71.9026757 68.783215,72.2918317 68.783215,72.7716" id="Path" fill="#C6C6C6" fill-rule="nonzero"></path>
                    <path d="M33.7243,57.8908 C33.7242993,58.1472006 33.5699441,58.3783264 33.3332731,58.4763091 C33.0966021,58.5742918 32.8242746,58.5198143 32.643388,58.3383017 C32.4625014,58.1567891 32.4087171,57.8840263 32.5071366,57.6473138 C32.6055562,57.4106013 32.8367765,57.2566065 33.092885,57.2572 C33.2606008,57.2571995 33.4214261,57.3240004 33.5398816,57.4428658 C33.6583371,57.5617312 33.7246891,57.7228938 33.7243,57.8908" id="Path" fill="#C6C6C6" fill-rule="nonzero"></path>
                    <path d="M87.82968,96.3717333 C87.82968,96.7346212 87.5358355,97.0288 87.17336,97.0288 C86.8108845,97.0288 86.51704,96.7346212 86.51704,96.3717333 C86.51704,96.0088454 86.8108845,95.7146667 87.17336,95.7146667 C87.3475462,95.7142761 87.5147105,95.7833771 87.6378791,95.9066858 C87.7610476,96.0299945 87.8300701,96.197349 87.82968,96.3717333" id="Path" fill="#FFFFFF" fill-rule="nonzero"></path>
                    <path d="M163.135075,132.372533 C163.135075,132.724081 162.850413,133.009067 162.499265,133.009067 C162.148117,133.009067 161.863455,132.724081 161.863455,132.372533 C161.863455,132.020986 162.148117,131.736 162.499265,131.736 C162.850413,131.736 163.135075,132.020986 163.135075,132.372533" id="Path" fill="#FFFFFF" fill-rule="nonzero"></path>
                    <path d="M71.8436,125.3208 C71.8447863,125.586822 71.6856333,125.827312 71.4404797,125.929938 C71.195326,126.032564 70.9125518,125.977075 70.7242376,125.789388 C70.5359234,125.601701 70.4792323,125.318856 70.5806441,125.072967 C70.6820559,124.827078 70.9215573,124.666669 71.18728,124.666667 C71.5497555,124.666667 71.8436,124.960845 71.8436,125.323733" id="Path" fill="#FFFFFF" fill-rule="nonzero"></path>
                    <path d="M64.94931,38.7596 C64.6692127,37.4885308 63.6629356,36.5047249 62.387025,36.2545333 C63.6629356,36.0043418 64.6692127,35.0205358 64.94931,33.7494667 C65.2303212,35.0205665 66.236954,36.0041578 67.51306,36.2545333 C66.236954,36.5049089 65.2303212,37.4885002 64.94931,38.7596" id="Path" fill="#9080CF" fill-rule="nonzero"></path>
                    <path d="M83.32334,33.6952 L83.32334,49.7273333 C83.32334,53.57 86.462835,63.2998667 90.29967,63.2998667 L131.450055,63.2998667 L121.7415,56.8157333 C121.75029,56.6827556 121.754685,56.5478222 121.754685,56.4109333 L121.754685,33.6952 C121.743421,29.8425767 118.6266,26.7222102 114.778355,26.7109333 L90.29967,26.7109333 C86.4514247,26.7222102 83.334604,29.8425767 83.32334,33.6952" id="Path" fill="#00B0E3" fill-rule="nonzero"></path>
                    <path d="M90.418335,44.6732 L92.108945,44.4385333 C95.7573397,43.9327186 99.4738127,44.3181739 102.941155,45.562 L104.41348,46.09 L104.90572,51.2893333 L91.22262,51.2893333 L90.418335,44.6732 Z" id="Path" fill="#000000" fill-rule="nonzero"></path>
                    <path d="M105.891665,47.8133333 C104.376305,47.8739085 102.982532,46.9865375 102.39471,45.5869333 C104.66802,44.2346697 106.190057,41.907067 106.518685,39.2802667 L107.051945,34.9213333 C107.630449,30.2147259 104.288297,25.9297626 99.5870375,25.3506 C94.8857785,24.7714374 90.6056845,28.1173925 90.02718,32.824 L89.987625,33.1481333 L89.469015,32.7697333 C89.1683891,32.5491507 88.7840246,32.4770505 88.4240245,32.573711 C88.0640243,32.6703715 87.7672814,32.9253499 87.617255,33.2669333 L87.544005,33.4312 C86.9428653,34.7934682 87.0216597,36.3602677 87.75643,37.6552 C88.0499954,38.1731921 88.6167102,38.4740299 89.20971,38.4266667 L89.43532,38.4090667 C89.4896078,40.6275201 90.3975908,42.7392744 91.96977,44.3036 L91.8848,45.2466667 C91.7322287,46.9334726 90.4373459,48.2918493 88.76142,48.5232 L87.45757,48.7021333 C84.81178,49.0673333 84.696045,51.6237333 84.696045,54.2974667 L87.432665,56.8876 L101.672465,56.9844 L108.168275,51.4418667 L108.168275,50.0016 C108.167958,49.4053936 107.924986,48.835058 107.495401,48.4221429 C107.065816,48.0092279 106.486714,47.7893892 105.891665,47.8133333" id="Path" fill="#7A5F52" fill-rule="nonzero"></path>
                    <path d="M90.055015,33.77 L89.908515,33.7289333 C89.67551,33.5581271 89.3777472,33.5022184 89.0987552,33.5768909 C88.8197633,33.6515634 88.5895941,33.8487736 88.472815,34.1132 L88.417145,34.2408 C87.9515097,35.2955401 88.0123726,36.508742 88.581225,37.5114667 C88.8089705,37.9121293 89.2472296,38.1452193 89.706345,38.1098667 L89.805965,37.5598667 L90.055015,33.77 Z" id="Path" fill="#665042" fill-rule="nonzero"></path>
                    <path d="M106.254985,40.5665333 C106.524661,40.5023461 106.769949,40.3612216 106.961115,40.1602667 C107.917481,39.1551113 108.341407,37.7556542 108.103815,36.388 L108.074515,36.2222667 C107.982779,35.6958535 107.540898,35.3020841 107.007995,35.2718667 L106.846845,36.5918667 L106.137785,36.0536 C104.895761,35.1092827 103.277965,34.8155464 101.783805,35.2630667 C101.356429,35.3954047 101.003233,35.6996416 100.808747,36.1029631 C100.614262,36.5062846 100.59599,36.9723931 100.758305,37.3897333 L101.41902,39.072 C101.541593,39.3844019 101.516629,39.7355213 101.351092,40.0273918 C101.185554,40.3192623 100.897166,40.5206382 100.56639,40.5753333 L98.654565,40.8921333 L98.417235,42.8310667 L98.563735,43.0774667 C98.8662058,43.5680874 99.0189597,44.1364687 99.003235,44.7128 L93.020175,45.4461333 C93.020175,45.4461333 99.466175,50.9256 101.039585,51.436 C102.612995,51.9464 106.22129,49.8666667 106.22129,49.8666667 L104.684505,47.6505333 C103.654403,47.3332835 102.818557,46.5738781 102.4035,45.5781333 C104.276412,44.4578334 105.653395,42.666086 106.254985,40.5665333" id="Path" fill="#604B40" fill-rule="nonzero"></path>
                    <path d="M94.845565,35.9333333 C94.8057438,36.2590451 94.5738087,36.5286435 94.2579646,36.6163526 C93.9421204,36.7040617 93.6046058,36.592598 93.4028815,36.3339628 C93.2011572,36.0753276 93.1749739,35.7204861 93.336547,35.4349826 C93.4981201,35.1494792 93.8156108,34.9895736 94.1409,35.0298667 C94.584104,35.0855772 94.8990347,35.4893568 94.845565,35.9333333" id="Path" fill="#000000" fill-rule="nonzero"></path>
                    <path d="M104.40762,37.1066667 C104.353362,37.5512725 103.949382,37.8676757 103.505277,37.8133954 C103.061172,37.7591152 102.745092,37.3547037 102.799272,36.9100883 C102.853451,36.4654728 103.257375,36.1489983 103.70149,36.2032 C103.914812,36.2292347 104.109061,36.3390555 104.241491,36.5084952 C104.373922,36.677935 104.433682,36.8931091 104.40762,37.1066667" id="Path" fill="#000000" fill-rule="nonzero"></path>
                    <path d="M98.64724,40.8965333 C98.64724,40.8965333 95.979475,39.3653333 94.23759,39.9696 L92.642205,40.6076 C92.4236619,40.6946647 92.1760833,40.6663242 91.9828116,40.5321189 C91.7895399,40.3979136 91.6762824,40.1756943 91.681165,39.9402667 L91.748555,36.7136 C91.7595647,36.1458001 91.3628119,35.6516114 90.80656,35.5402667 L89.53787,35.2865333 L89.123275,38.6598667 C88.8698043,40.7165701 89.6400762,42.7669366 91.18453,44.1466667 L92.891255,45.672 C95.7960496,48.269871 100.14215,48.4125586 103.210715,46.0108 L104.212775,45.2261333 C105.320636,44.3614619 106.039971,43.0915648 106.2125,41.6958667 L106.66665,37.9852 C106.099439,37.916391 105.565329,38.267087 105.402355,38.8153333 L104.68011,41.2573333 C104.591024,41.5604942 104.362923,41.8029814 104.065993,41.9101835 C103.769062,42.0173856 103.438872,41.9764603 103.17702,41.8 L102.463565,41.3204 C101.710282,40.8167693 100.798343,40.6079695 99.90128,40.7337333 L98.64724,40.8965333 Z" id="Path" fill="#000000" fill-rule="nonzero"></path>
                    <path d="M95.06678,41.4201333 L96.32375,41.9892 C97.7274256,42.627332 99.2781899,42.8707068 100.80958,42.6932 L102.1105,42.5465333 L100.216255,44.0674667 C99.5719257,44.582615 98.7326138,44.7852451 97.9245712,44.6207345 C97.1165285,44.4562239 96.4229308,43.9415063 96.03075,43.2153333 L95.06678,41.4201333 Z" id="Path" fill="#FFFFFF" fill-rule="nonzero"></path>
                    <path d="M96.090815,34.4490667 C96.0325326,34.4492459 95.9753023,34.4335277 95.92527,34.4036 C94.7983156,33.5119221 93.2196385,33.4689485 92.04595,34.298 C91.9124925,34.4007363 91.7222934,34.382117 91.6112426,34.2554448 C91.5001918,34.1287725 91.5064277,33.9375508 91.625495,33.8184 C93.0060158,32.7970503 94.8949269,32.8131979 96.257825,33.858 C96.3764125,33.9336351 96.4312834,34.0782777 96.3927447,34.2136552 C96.3542059,34.3490327 96.2314132,34.4429835 96.090815,34.4446667" id="Path" fill="#000000" fill-rule="nonzero"></path>
                    <path d="M105.879945,36.395336 C105.806294,36.3954326 105.734872,36.3700438 105.677775,36.3234667 C104.682045,35.2866286 103.123279,35.0299217 101.848265,35.6928 C101.701818,35.7900021 101.504392,35.7499465 101.4073,35.6033333 C101.310208,35.4567201 101.350218,35.2590688 101.496665,35.1618667 C103.002193,34.3352241 104.872638,34.6075221 106.08065,35.8292 C106.185833,35.9140119 106.226009,36.0561006 106.180836,36.1835231 C106.135662,36.3109456 106.015,36.3958845 105.879945,36.395336" id="Path" fill="#000000" fill-rule="nonzero"></path>
                    <path d="M98.36889,27.72 C98.042195,26.9514667 96.656305,26.8033333 95.273345,27.3914667 C93.890385,27.9796 93.03336,29.0796 93.360055,29.8496 C93.68675,30.6196 95.071175,30.7648 96.454135,30.1781333 C97.837095,29.5914667 98.69412,28.49 98.36889,27.72" id="Path" fill="#93766A" fill-rule="nonzero"></path>
                    <path d="M112.87239,52.1194667 C111.583069,49.4299175 108.867135,47.7191221 105.88727,47.7194667 L104.918905,47.7194667 L104.41348,46.09 L99.9423,48.4469333 L97.46059,54.0041333 L95.06678,48.3193333 L90.418335,44.6732 L90.087245,47.4276 L85.525235,48.5510667 C84.7063317,48.7522574 83.9508296,49.1556503 83.327735,49.7244 L83.327735,56.5781333 C83.3354568,58.419772 84.075853,60.1824226 85.385115,61.4761084 C86.694377,62.7697943 88.4645759,63.4878705 90.304065,63.4714667 L97.854675,63.4993333 L112.87239,52.1194667 Z" id="Path" fill="#522882" fill-rule="nonzero"></path>
                    <polygon id="Path" fill="#000000" fill-rule="nonzero" points="95.61469 51.8877333 94.596515 48.7021333 91.604985 53.0038667 94.596515 51.6970667"></polygon>
                    <polygon id="Path" fill="#000000" fill-rule="nonzero" points="100.13275 48.9558667 102.67892 51.6325333 104.52482 48.7021333 102.551465 53.8765333"></polygon>
                    <path d="M96.37356,54.7844 C96.37356,55.0824865 96.1321878,55.3241333 95.83444,55.3241333 C95.5366922,55.3241333 95.29532,55.0824865 95.29532,54.7844 C95.29532,54.4863135 95.5366922,54.2446667 95.83444,54.2446667 C95.9775429,54.2442758 96.1148971,54.3010148 96.2160865,54.4023193 C96.3172759,54.5036238 96.3739505,54.6411343 96.37356,54.7844" id="Path" fill="#000000" fill-rule="nonzero"></path>
                    <path d="M130.11251,46.8908 L106.78678,46.8908 C105.952282,46.8908 105.194666,47.3787185 104.848585,48.1389333 L97.85028,63.5066667 L124.391685,63.5066667 L131.192215,48.5804 C131.359504,48.2124846 131.328697,47.7846933 131.110424,47.4446062 C130.892151,47.1045192 130.516291,46.8986927 130.11251,46.8981333" id="Path" fill="#C2C2C2" fill-rule="nonzero"></path>
                    <path d="M131.54235,46.8908 L108.21662,46.8908 C107.382122,46.8908 106.624506,47.3787185 106.278425,48.1389333 L99.28012,63.5066667 L125.821525,63.5066667 L132.622055,48.5804 C132.789344,48.2124846 132.758537,47.7846933 132.540264,47.4446062 C132.321991,47.1045192 131.946131,46.8986927 131.54235,46.8981333" id="Path" fill="#B2B2B2" fill-rule="nonzero"></path>
                    <polygon id="Path" fill="#FFFFFF" fill-rule="nonzero" points="116.603745 56.0384 117.23223 54.714 115.72328 54.714 115.115305 56.0384"></polygon>
                    <polygon id="Path" fill="#FFFFFF" fill-rule="nonzero" points="115.00836 56.2701333 114.441405 57.5036 115.90787 57.5036 116.49387 56.2701333"></polygon>
                    <polygon id="Path" fill="#FFFFFF" fill-rule="nonzero" points="118.2841 56.0384 118.892075 54.714 117.514975 54.714 116.88649 56.0384"></polygon>
                    <polygon id="Path" fill="#FFFFFF" fill-rule="nonzero" points="116.77515 56.2701333 116.190615 57.5036 117.6102 57.5036 118.177155 56.2701333"></polygon>
                    <path d="M276.53926,153.7712 L212.555385,153.7712 C211.718779,153.7712 211.040575,153.092225 211.040575,152.254667 C211.040575,151.417109 211.718779,150.738133 212.555385,150.738133 L276.53926,150.738133 C277.375866,150.738133 278.05407,151.417109 278.05407,152.254667 C278.05407,153.092225 277.375866,153.7712 276.53926,153.7712" id="Path" fill="#C6C6C6" fill-rule="nonzero"></path>
                    <path d="M259.37532,134.993467 L259.37532,134.356933 C259.372899,132.996537 258.271507,131.894548 256.912655,131.892933 L254.91,131.892933 L254.91,126.978133 L252.38141,126.978133 L252.38141,136.172667 L252.07376,136.172667 L252.07376,137.599733 L251.64305,137.599733 L251.32661,144.7864 L252.07376,144.7864 L252.07376,148.854933 L255.21765,148.854933 L255.21765,144.7864 L255.9648,144.7864 L255.64836,137.599733 L255.21765,137.599733 L255.21765,136.172667 L254.91,136.172667 L254.91,132.684933 L256.906795,132.684933 C257.829069,132.68574 258.576745,133.433611 258.57836,134.356933 L258.57836,134.993467 C258.067224,135.726507 257.744209,136.574252 257.63783,137.461867 C257.631664,137.534442 257.656236,137.606273 257.70555,137.659826 C257.754863,137.713379 257.824381,137.743729 257.897135,137.743467 L260.04922,137.743467 C260.12183,137.743283 260.191077,137.7128 260.240292,137.659353 C260.289508,137.605905 260.314236,137.534335 260.308525,137.461867 C260.202701,136.574354 259.880183,135.726591 259.36946,134.993467" id="Path" fill="#575756" fill-rule="nonzero"></path>
                    <polygon id="Path" fill="#DF6C47" fill-rule="nonzero" points="227.146785 148.470667 227.45004 144.365467 222.432415 143.960667 222.05884 149.8288 226.408425 150.320133"></polygon>
                    <polygon id="Path" fill="#CE9C5F" fill-rule="nonzero" points="242.898465 101.1076 239.889355 112.8424 233.578135 117.1192 234.76039 119.6624 243.800905 115.972267 244.117345 102.344"></polygon>
                    <path d="M253.69991,144.365467 C253.69991,144.365467 263.71465,144.6588 269.658155,146.8896 C270.082746,147.048752 270.314142,147.507603 270.18995,147.944133 L269.930645,148.854933 C264.594839,147.724324 259.153864,147.166284 253.69991,147.190267 L253.69991,144.365467 Z" id="Path" fill="#B2B2B2" fill-rule="nonzero"></path>
                    <polygon id="Path" fill="#B2B2B2" fill-rule="nonzero" points="269.930645 148.854933 267.185235 148.854933 267.185235 147.190267 269.561465 148.023333"></polygon>
                    <path d="M269.930645,148.854933 L267.185235,148.854933 L267.185235,149.3272 C266.219971,149.324929 265.415678,150.067019 265.339319,151.030355 C265.262959,151.993691 265.940277,152.853489 266.893817,153.003661 C267.847358,153.153832 268.755639,152.543747 268.978395,151.603467 L269.930645,151.603467 L269.930645,148.854933 Z" id="Path" fill="#737373" fill-rule="nonzero"></path>
                    <polygon id="Path" fill="#E6E6E6" fill-rule="nonzero" points="237.46771 148.854933 240.21312 148.854933 240.21312 147.190267 237.838355 148.023333"></polygon>
                    <path d="M240.21312,148.854933 L237.4765,148.854933 L237.4765,149.3272 C236.511236,149.324929 235.706943,150.067019 235.630584,151.030355 C235.554224,151.993691 236.231542,152.853489 237.185082,153.003661 C238.138623,153.153832 239.046904,152.543747 239.26966,151.603467 L240.220445,151.603467 L240.21312,148.854933 Z" id="Path" fill="#737373" fill-rule="nonzero"></path>
                    <path d="M227.146785,148.470667 C227.603673,149.951358 227.887821,151.480021 227.993555,153.026133 L213.96911,153.026133 C214.23316,151.112925 215.881383,149.697566 217.81034,149.7276 C219.771221,149.72744 221.459615,148.342168 221.84495,146.417333 C222.651253,146.769261 223.267211,147.451647 223.53556,148.290267 L223.592695,148.470667 L227.146785,148.470667 Z" id="Path" fill="#FFFFFF" fill-rule="nonzero"></path>
                    <path d="M265.39061,120.2432 L267.7727,97.3294667 C267.818115,96.9305333 267.7727,93.7097333 265.80081,93.8828 C259.820752,94.6847206 253.760321,94.6807743 247.78131,93.8710667 C247.58793,95.4712 246.534595,94.842 246.534595,94.842 L241.114095,128.8408 L263.865545,128.8408 C265.055353,128.8408 266.163706,128.235809 266.807747,127.234244 C267.451789,126.232679 267.543219,124.97207 267.050455,123.887867 L265.39061,120.2432 Z" id="Path" fill="#737373" fill-rule="nonzero"></path>
                    <path d="M254.96567,98.7756 C251.959315,98.8063918 248.954518,98.6255459 245.9735,98.2344 L246.065795,97.6066667 C254.16871,98.8049333 266.34579,97.6169333 266.467385,97.6066667 L266.53038,98.2388 C266.449805,98.2388 261.00733,98.7785333 254.96567,98.7785333" id="Path" fill="#505050" fill-rule="nonzero"></path>
                    <path d="M253.704305,103.693333 C250.642849,103.727517 247.582767,103.546674 244.54659,103.152133 L244.638885,102.5244 C252.743265,103.724133 265.54883,102.534667 265.67775,102.5244 L265.73635,103.155067 C265.65138,103.163867 259.930555,103.6948 253.704305,103.6948" id="Path" fill="#505050" fill-rule="nonzero"></path>
                    <path d="M253.270665,108.770933 C250.195574,108.80514 247.121852,108.6243 244.07193,108.229733 L244.164225,107.602 C252.265675,108.800267 265.230925,107.612267 265.36131,107.602 L265.41991,108.234133 C265.333475,108.242933 259.543795,108.773867 253.270665,108.773867" id="Path" fill="#505050" fill-rule="nonzero"></path>
                    <path d="M253.686725,113.918933 C250.53258,113.918933 247.073715,113.8852 243.792115,113.785467 L243.81116,113.151867 C253.587105,113.4452 264.95111,113.151867 265.06538,113.151867 L265.081495,113.785467 C265.005315,113.785467 259.953995,113.918933 253.686725,113.918933" id="Path" fill="#505050" fill-rule="nonzero"></path>
                    <rect id="Rectangle" fill="#505050" fill-rule="nonzero" x="243.16656" y="118.863067" width="21.2718" height="1"></rect>
                    <rect id="Rectangle" fill="#505050" fill-rule="nonzero" x="244.117345" y="124.257467" width="21.2718" height="1"></rect>
                    <path d="M268.27373,95.6941333 C268.318398,95.3108167 268.198607,94.9265159 267.944105,94.6366667 C267.587337,94.1698411 267.035441,93.8938496 266.44834,93.8886667 L264.30944,113.3484 C263.897466,117.090201 264.120857,120.874817 264.970155,124.542 L265.336405,126.127467 C265.425803,126.514289 265.333024,126.92079 265.084684,127.230352 C264.836345,127.539913 264.45989,127.718324 264.06332,127.7144 L253.69991,127.614667 C253.69991,127.614667 248.9328,127.4944 247.29786,128.540133 C246.789505,128.864267 246.97556,130.313333 247.39162,130.7504 C247.70408,131.079917 248.195721,131.164635 248.600245,130.958667 L249.15841,130.678533 C250.263011,130.122836 251.482139,129.833528 252.71836,129.833733 L264.64639,129.833733 C265.642959,129.83397 266.585739,129.38122 267.209297,128.602953 C267.832856,127.824686 268.069746,126.805081 267.853275,125.8312 L267.19842,122.881733 C266.602738,120.204717 266.41847,117.45239 266.651975,114.719733 L268.27373,95.6941333 Z" id="Path" fill="#C2C2C2" fill-rule="nonzero"></path>
                    <path d="M257.756495,146.191467 L253.69991,144.364 C253.69991,144.364 243.683705,144.657333 237.7402,146.8896 C237.315609,147.048752 237.084213,147.507603 237.208405,147.944133 L237.469175,148.854933 C242.80496,147.724192 248.245949,147.16615 253.69991,147.190267 L255.737725,147.904533 L255.737725,148.4692 L258.31759,148.4692 L258.488995,147.6112 C258.604806,147.024934 258.301072,146.436235 257.756495,146.191467" id="Path" fill="#E6E6E6" fill-rule="nonzero"></path>
                    <polygon id="Path" fill="#737373" fill-rule="nonzero" points="258.345425 149.3272 258.345425 148.4692 255.737725 148.4692 255.737725 149.3272 255.154655 149.3272 255.154655 153.026133 258.97977 153.026133 258.97977 149.3272"></polygon>
                    <path d="M222.05884,144.7864 L222.93784,127.311067 C223.020029,125.675981 224.13554,124.275874 225.70962,123.832133 L238.843345,120.074533 L240.28344,116.638133 L251.480435,116.5472 L248.031825,124.1284 C246.923648,126.564527 244.699172,128.307164 242.07074,128.798267 L229.900985,131.068667 L227.849985,145.638533 L222.05884,144.7864 Z" id="Path" fill="#005291" fill-rule="nonzero"></path>
                    <path d="M246.051145,121.912267 L241.714745,123.896667 C239.557085,124.886906 238.436615,127.298811 239.07042,129.5888 L243.85511,145.993467 L250.00811,145.018133 L247.788635,128.626667 L253.566595,128.0268 C255.519606,127.822974 257.037036,126.231774 257.149985,124.2692 L257.252535,122.459333 L251.33247,112.615067 L246.051145,121.912267 Z" id="Path" fill="#0078D7" fill-rule="nonzero"></path>
                    <path d="M245.043225,95.2673333 C246.495421,94.375618 248.227062,94.0567087 249.901165,94.3726667 L252.587975,93.8872 C254.905114,94.1330655 257.029298,95.2918958 258.491772,97.1079657 C259.954246,98.9240355 260.634795,101.248066 260.38324,103.5672 L257.22177,125.4 L256.83208,125.086133 C252.08839,121.271712 246.135829,119.286482 240.0549,119.4908 L237.545355,119.575867 L241.465695,111.8656 C242.898465,107.921733 240.276115,98.5292 245.043225,95.2732" id="Path" fill="#0D7364" fill-rule="nonzero"></path>
                    <path d="M257.46203,85.6005333 C257.256524,85.5426489 257.039051,85.5426489 256.833545,85.6005333 L257.23056,84.2541333 C257.861773,82.1136361 257.304394,79.7986037 255.768383,78.1810865 C254.232371,76.5635692 251.951083,75.8893065 249.783858,76.4122865 C247.616632,76.9352665 245.892723,78.5760361 245.26151,80.7165333 L243.483,86.7592 C242.758879,89.2158004 244.082502,91.8099848 246.49504,92.6625333 C246.752722,93.0320218 246.918017,93.4580529 246.977025,93.9048 L247.24219,95.9464 C247.32423,96.5712 247.9659,97.1696 249.1379,97.3001333 C250.22238,97.4737404 251.324406,97.1177912 252.10306,96.3424 C252.84412,95.585141 253.186496,94.5231683 253.027475,93.4750667 L252.895625,92.6214667 C254.136474,91.9347066 255.106032,90.8445239 255.643965,89.5312 C256.517125,89.7257247 257.401893,89.2554678 257.730125,88.4224 L258.22676,87.1566667 C258.347466,86.8500923 258.333836,86.5068323 258.189202,86.2108181 C258.044568,85.9148039 257.782263,85.6933241 257.466425,85.6005333" id="Path" fill="#DBAB77" fill-rule="nonzero"></path>
                    <path d="M247.78131,87.9457333 L246.54778,87.5805333 C246.369299,87.5243419 246.223536,87.3940879 246.147574,87.2229091 C246.071612,87.0517303 246.072774,86.8561285 246.150765,86.6858667 L247.15429,84.3978667 C247.356506,83.9599122 247.366589,83.4572568 247.1821,83.0115275 C246.99761,82.5657982 246.635358,82.217605 246.182995,82.0512 L244.987555,81.6346667 L243.478605,86.7533333 C242.725703,89.3072799 244.182984,91.988786 246.733835,92.7432 C246.271681,91.0670896 246.663439,89.2706325 247.78131,87.9398667" id="Path" fill="#BA8C57" fill-rule="nonzero"></path>
                    <path d="M251.76318,85.5506667 C251.686023,85.8111889 251.773246,86.092588 251.984167,86.2636141 C252.195087,86.4346402 252.488154,86.4616017 252.726675,86.3319233 C252.965197,86.2022449 253.102185,85.9414728 253.073746,85.671236 C253.045307,85.4009992 252.857044,85.1745335 252.596765,85.0974667 C252.241586,84.9923004 251.868469,85.195155 251.76318,85.5506667" id="Path" fill="#043C40" fill-rule="nonzero"></path>
                    <path d="M244.6843,83.4533333 C244.579724,83.8091699 244.783026,84.182516 245.13843,84.287305 C245.493835,84.392094 245.86681,84.1886599 245.971574,83.8328788 C246.076338,83.4770977 245.873234,83.1036439 245.517885,82.9986667 C245.34712,82.9482192 245.163329,82.9677886 245.006982,83.0530655 C244.850636,83.1383424 244.734555,83.282334 244.6843,83.4533333" id="Path" fill="#043C40" fill-rule="nonzero"></path>
                    <path d="M249.46899,90.0078667 L245.479795,88.8345333 L246.13172,89.5004 C246.73251,90.1108968 247.59877,90.379605 248.439095,90.2161333 L249.46899,90.0078667 Z" id="Path" fill="#FFFFFF" fill-rule="nonzero"></path>
                    <path d="M254.617,87.4206667 L255.63078,87.714 L255.99996,86.4028 C256.162203,85.833618 256.722505,85.4745417 257.30674,85.5653333 L257.89274,83.5736 C258.370736,82.1165986 258.216795,80.525718 257.468337,79.1876642 C256.719878,77.8496104 255.445444,76.8869198 253.95482,76.5336 C253.201188,76.2946041 252.417294,76.164712 251.626935,76.1478667 C250.906323,76.1500552 250.191711,76.0167215 249.520265,75.7548 L248.392215,75.3148 L248.371705,76.5277333 L248.24718,76.5365333 C247.621582,76.583441 246.997873,76.42373 246.4716,76.0818667 L247.23047,78.1968 C247.596258,79.2122944 248.423154,79.992749 249.45727,80.2985333 L250.308435,80.5508 C250.529429,80.6153985 250.761497,80.6328859 250.98966,80.6021333 L252.790145,80.3542667 C253.900839,80.1999917 254.99308,80.7400479 255.54581,81.7168 L256.04977,82.6070667 C256.275821,83.0060737 256.302383,83.4879824 256.121555,83.9094667 L254.617,87.4206667 Z" id="Path" fill="#000000" fill-rule="nonzero"></path>
                    <path d="M254.12769,85.3600048 C254.043638,85.3605359 253.965816,85.3156955 253.924055,85.2426667 C253.555635,84.6486896 252.925569,84.2670578 252.22905,84.216 L252.22026,84.216 C252.089995,84.216 251.984395,84.1102795 251.984395,83.9798667 C251.984395,83.8494538 252.089995,83.7437333 252.22026,83.7437333 L252.22905,83.7437333 C253.094314,83.7888703 253.881069,84.2601421 254.32986,85.0021333 C254.395542,85.114357 254.358206,85.2586258 254.246355,85.3248 C254.210434,85.3462551 254.169513,85.3578877 254.12769,85.3585333" id="Path" fill="#000000" fill-rule="nonzero"></path>
                    <path d="M246.89352,82.5733333 C246.832794,82.5733954 246.774444,82.5497132 246.730905,82.5073333 C246.191935,82.0593626 245.469694,81.9003217 244.79271,82.0805333 C244.710902,82.1072157 244.621072,82.0871842 244.55831,82.0282637 C244.495547,81.9693432 244.469811,81.8808828 244.491155,81.7974375 C244.512499,81.7139921 244.577535,81.6488025 244.66086,81.6273333 C245.499003,81.3963008 246.39703,81.5981056 247.056135,82.1656 C247.101692,82.2087218 247.128227,82.2682278 247.129876,82.330973 C247.131525,82.3937183 247.108154,82.4545391 247.064925,82.5 C247.019976,82.5465412 246.958184,82.5729778 246.89352,82.5733333" id="Path" fill="#000000" fill-rule="nonzero"></path>
                    <polygon id="Path" fill="#DF6C47" fill-rule="nonzero" points="244.357605 145.544667 245.15017 148.985467 249.8411 148.470667 249.268285 144.365467"></polygon>
                    <path d="M251.8335,152.263467 C251.796657,151.345288 251.536137,150.450051 251.07463,149.655733 C250.78163,149.149733 250.182445,148.189067 249.73855,147.486533 C249.403037,146.953557 248.817856,146.630178 248.18858,146.63 L246.37784,146.63 C245.637511,146.629912 245.015443,147.186999 244.93335,147.9236 L244.64035,150.553333 C244.218711,150.93764 243.914023,151.433321 243.76135,151.983333 C243.734698,152.085282 243.721886,152.19036 243.72326,152.295733 L243.72326,153.029067 L251.870125,153.029067 L251.8335,152.263467 Z" id="Path" fill="#FFFFFF" fill-rule="nonzero"></path>
                    <path d="M249.97881,143.371067 C247.670615,143.058157 245.323924,143.190586 243.065475,143.7612 C243.25446,144.8084 243.69982,146.360133 243.69982,146.360133 C245.905398,146.184765 248.118987,146.131884 250.33041,146.201733 L249.97881,143.371067 Z" id="Path" fill="#409AE1" fill-rule="nonzero"></path>
                    <polygon id="Path" fill="#0078D7" fill-rule="nonzero" points="228.1591 145.993467 221.86839 145.1252 222.05884 141.922 228.59567 143.208267"></polygon>
                    <path d="M259.687365,103.768133 C257.79605,104.941467 253.06117,103.768133 253.06117,103.768133 L255.093125,115.17 L245.75375,119.386667 L242.104435,118.36 C241.32713,118.142764 240.501922,118.483262 240.103245,119.185733 L239.347305,120.518933 L241.105305,123.004933 L247.123525,122.476933 L247.190915,122.085333 L259.1292,119.083067 C259.904203,118.88887 260.432663,118.171562 260.3891,117.372933 C260.21916,114.221067 259.8031,106.535733 259.68297,103.766667" id="Path" fill="#DBAB77" fill-rule="nonzero"></path>
                    <path d="M218.49889,114.4792 C218.746626,114.287007 219.044967,114.171306 219.35738,114.146267 L235.53977,112.8468 C236.195538,112.794288 236.816261,113.15014 237.102925,113.742933 L241.251805,122.2276 C241.35131,122.431498 241.56489,122.554097 241.790925,122.537067 L251.166925,121.7832 L251.243105,122.717467 L240.81084,123.554933 L223.803655,124.921867 L218.268885,114.6552 L218.49889,114.4792 Z" id="Path" fill="#E6E6E6" fill-rule="nonzero"></path>
                    <path d="M218.476915,114.592133 L234.931795,113.272133 C235.459069,113.229534 235.958329,113.515566 236.188765,113.992267 L240.41529,122.732133 C240.65649,123.232171 241.181202,123.531013 241.73379,123.483067 L242.90579,123.3892 L222.778155,125.002533 L218.08283,115.2932 C218.012101,115.147561 218.017837,114.976338 218.098154,114.83577 C218.178471,114.695202 218.322989,114.603456 218.48424,114.590667" id="Path" fill="#C2C2C2" fill-rule="nonzero"></path>
                    <polygon id="Path" fill="#D2D2D2" fill-rule="nonzero" points="222.06177 123.546133 240.109105 122.097067 240.287835 122.4652 222.239035 123.914267"></polygon>
                    <polygon id="Path" fill="#FFFFFF" fill-rule="nonzero" points="228.676245 118.748667 228.34369 118.074 229.382375 117.9904 229.71493 118.665067"></polygon>
                    <polygon id="Path" fill="#FFFFFF" fill-rule="nonzero" points="228.41108 118.770667 227.469085 118.845467 227.13653 118.1708 228.078525 118.096"></polygon>
                    <polygon id="Path" fill="#FFFFFF" fill-rule="nonzero" points="228.793445 118.987733 229.83213 118.904133 230.164685 119.5788 229.126 119.6624"></polygon>
                    <polygon id="Path" fill="#FFFFFF" fill-rule="nonzero" points="228.52828 119.009733 228.860835 119.6844 227.91884 119.7592 227.586285 119.084533"></polygon>
                    <rect id="Rectangle" fill="#3C3C3B" fill-rule="nonzero" x="213.955925" y="153.026133" width="13.97903" height="1"></rect>
                    <rect id="Rectangle" fill="#3C3C3B" fill-rule="nonzero" x="243.475675" y="153.026133" width="8.47649" height="1"></rect>
                    <path d="M227.146785,148.470667 C227.603673,149.951358 227.887821,151.480021 227.993555,153.026133 L223.54728,148.3328 C224.023405,148.8784 219.57127,150.887733 217.301985,150.416933 C215.48099,150.04 213.96911,153.021733 213.96911,153.021733 C214.23316,151.108525 215.881383,149.693166 217.81034,149.7232 C219.771221,149.72304 221.459615,148.337768 221.84495,146.412933 C222.651253,146.764861 223.267211,147.447247 223.53556,148.285867 L223.592695,148.466267 L227.146785,148.470667 Z" id="Path" fill="#DADADA" fill-rule="nonzero"></path>
                    <path d="M251.506805,150.569467 C251.506805,150.569467 250.18098,148.190533 249.737085,147.489467 C249.401572,146.95649 248.816391,146.633111 248.187115,146.632933 L246.376375,146.632933 C245.636046,146.632845 245.013978,147.189933 244.931885,147.926533 L244.638885,150.556267 C244.22429,150.931733 246.9697,147.444 251.506805,150.569467 Z" id="Path" fill="#DADADA" fill-rule="nonzero"></path>
                    <path d="M56.46403,157.930667 L18.642125,157.930667 C18.1469827,157.971242 17.6710921,157.72974 17.4110736,157.30594 C17.151055,156.882139 17.151055,156.347994 17.4110736,155.924194 C17.6710921,155.500393 18.1469827,155.258891 18.642125,155.299467 L56.46403,155.299467 C57.1482225,155.355535 57.6749647,155.927805 57.6749647,156.615067 C57.6749647,157.302328 57.1482225,157.874599 56.46403,157.930667" id="Path" fill="#DADADA" fill-rule="nonzero"></path>
                    <path d="M30.045685,130.533333 L27.18747,150.412533 C27.0256263,151.054067 26.9037961,151.705057 26.822685,152.361733 C26.3974384,154.180045 25.3634988,155.797931 23.892685,156.946533 L24.185685,157.046267 L28.54992,156.260133 L30.69175,152.1036 L30.62436,151.3776 C30.4531873,150.992399 30.4650326,150.550391 30.65659,150.174933 L36.11225,130.8868 L30.045685,130.533333 Z" id="Path" fill="#DBAB77" fill-rule="nonzero"></path>
                    <path d="M49.600505,155.598667 C48.6661201,154.726685 47.996795,153.608179 47.669635,152.372 L47.408865,151.383467 L46.822865,139.7968 L42.70182,139.974267 L44.264975,151.3864 L44.276695,151.3864 L44.14631,152.482 L48.024165,156.882 L50.982,156.882 L49.600505,155.598667 Z" id="Path" fill="#DBAB77" fill-rule="nonzero"></path>
                    <path d="M43.68044,157.7268 L43.2175,157.7268 C43.2175,157.7268 43.344955,156.000533 43.309795,155.233467 C43.2568415,154.674385 43.1538786,154.121188 43.002145,153.580533 C42.8575732,152.595786 43.1905948,151.601032 43.898725,150.9024 C43.9484315,150.853786 44.0162561,150.828323 44.085635,150.832228 C44.1550139,150.836134 44.2195599,150.869048 44.26351,150.922933 L47.47772,154.868267 C48.4008505,155.988236 49.7582032,156.659678 51.20761,156.713333 C51.7785773,156.739003 52.2745092,157.11473 52.454325,157.657867 C52.504135,157.8148 52.51732,157.9292 52.454325,157.935067 L48.5794,157.935067 C47.9073931,157.988252 47.2632601,157.655876 46.916625,157.077067 L46.037625,155.6104 C45.7436066,155.11987 45.2891564,154.746258 44.751355,154.552933 L44.059875,154.3168 C44.0640826,155.409537 43.9516155,156.499595 43.72439,157.5684 L43.68044,157.7268 Z" id="Path" fill="#361860" fill-rule="nonzero"></path>
                    <path d="M30.335755,150.939067 C30.3610839,150.890866 30.4110058,150.860687 30.4654075,150.860687 C30.5198092,150.860687 30.5697311,150.890866 30.59506,150.939067 L31.244055,152.465867 C31.5532739,153.073547 31.5603225,153.791149 31.2631,154.4048 C30.8891248,155.174854 30.6493211,156.003217 30.55404,156.854133 L30.432445,157.938 L29.81568,157.938 L30.057405,155.331733 L28.996745,156.923067 C28.6951215,157.543894 28.0660403,157.938 27.376455,157.938 L22.509725,157.938 C22.6980222,157.258931 23.2760801,156.760078 23.974725,156.673733 L24.24868,156.629733 C25.674125,156.395067 28.20418,155.518 28.90152,154.2508 L30.335755,150.939067 Z" id="Path" fill="#361860" fill-rule="nonzero"></path>
                    <polygon id="Path" fill="#09538F" fill-rule="nonzero" points="47.807345 148.950267 42.416145 148.950267 41.636765 132.4664 39.872905 119.5876 37.112845 132.3828 32.067385 148.950267 27.300275 148.950267 29.22382 129.6944 31.214755 109.721333 40.637635 105.5692 48.72004 108.480533"></polygon>
                    <path d="M30.933475,112.64 L41.07274,108.4292 L48.73176,109.472 L48.65265,110.825733 C47.3756484,110.946286 46.0877499,110.87111 44.833395,110.6028 C42.82488,110.155467 42.03085,110.002933 42.03085,110.002933 C41.0469236,111.729772 39.4100526,112.987367 37.48935,113.492133 C35.2798627,113.967648 33.024897,114.198811 30.765,114.181467 L30.933475,112.64 Z" id="Path" fill="#000000" fill-rule="nonzero"></path>
                    <path d="M62.88659,79.7866667 L65.33021,77.6952 C65.6447065,77.334758 66.0974531,77.1251912 66.57546,77.1188 L74.086515,77.5045333 L73.96785,77.8404 C73.8334238,78.2190737 73.4756204,78.47217 73.0742,78.4725333 L70.7888,78.4725333 L71.215115,79.7089333 C71.3289362,80.0370137 71.2088308,80.4007459 70.922115,80.5962667 L70.19987,81.0773333 C70.0513627,81.1772046 69.8721893,81.220879 69.694445,81.2005333 L67.42223,80.96 L67.76504,80.0653333 L65.0167,81.2386667 L62.88659,79.7866667 Z" id="Path" fill="#BA8C57" fill-rule="nonzero"></path>
                    <path d="M65.255495,77.3857333 L62.94519,79.7250667 L64.56841,80.2017333 L67.25229,78.4417333 C68.020588,77.9383796 68.930189,77.6956805 69.846805,77.7494667 L73.896065,77.9885333 C73.9243463,77.941903 73.9483718,77.8928155 73.96785,77.8418667 L74.086515,77.506 L66.50514,76.9193333 C66.0402667,76.8826583 65.5829374,77.0533455 65.255495,77.3857333" id="Path" fill="#DBAB77" fill-rule="nonzero"></path>
                    <path d="M63.515075,78.5165333 L56.842,83.3169333 L46.22368,82.6364 C45.9190902,81.9397334 45.1816363,81.5382905 44.431985,81.6610667 L29.6516,84.1705333 C28.3691291,84.4439066 27.2645215,85.2530235 26.61612,86.394 L20.73561,96.7354667 C19.9682141,98.071332 20.2206709,99.7603425 21.34505,100.8128 L28.205645,107.238267 C28.205645,107.238267 29.77466,107.0916 30.740095,104.4824 C30.740095,104.445733 25.905595,98.2417333 25.905595,98.2417333 L30.080845,95.0150667 C30.8325201,97.2639372 31.7129787,99.4675878 32.717845,101.615067 C31.8017717,103.333106 31.1273325,107.021283 30.7372963,109.668422 C30.4823725,111.398566 30.34894,112.684 30.34894,112.684 C30.34894,112.684 37.23444,114.715333 41.14013,108.986533 C44.036435,110.799333 50.338865,109.606933 50.338865,109.606933 C50.338865,109.606933 47.971425,103.124267 48.06958,100.110267 C48.273806,97.7199698 48.6602265,95.3487968 49.225465,93.0174667 C49.521479,91.6853303 49.4366895,90.2966561 48.98081,89.0105333 C51.2222635,88.9217238 52.9033536,88.8551167 54.0240804,88.810712 C54.6554936,88.7856945 55.6026135,88.7481683 56.86544,88.6981333 C57.1793414,88.6851591 57.4795004,88.565683 57.716605,88.3593333 L65.9836,81.1726667 C65.9836,79.4522667 63.520935,78.5326667 63.520935,78.5326667" id="Path" fill="#522882" fill-rule="nonzero"></path>
                    <path d="M42.457165,86.1373333 C42.457165,86.1373333 42.920105,87.8636 43.072465,88.6189333 C43.2748419,88.0479841 43.5237533,87.4946544 43.816685,86.9645333 L45.415,86.7416 L43.25852,84.4169333 L42.457165,86.1373333 Z" id="Path" fill="#000000" fill-rule="nonzero"></path>
                    <path d="M34.6326,83.8654667 C34.6326,83.8654667 38.88989,89.3757333 39.952015,92.9588 C40.615697,95.6283791 40.8919983,98.3797163 40.772415,101.128133 C42.4707835,99.200169 43.5056092,96.7770015 43.72439,94.2157333 C43.6472668,91.4837498 43.2214027,88.7728629 42.457165,86.1490667 L43.725855,83.49 L41.821355,82.0233333 L35.09554,81.4 L34.6326,83.8654667 Z" id="Path" fill="#F5F5F5" fill-rule="nonzero"></path>
                    <polygon id="Path" fill="#D2D2D2" fill-rule="nonzero" points="42.172955 84.0590667 42.6315 83.1409333 41.6646 82.5366667 41.85798 83.9373333"></polygon>
                    <path d="M45.246525,74.9466667 L44.84072,71.7757333 C44.4156237,68.5449562 41.4666453,66.2625956 38.2365,66.6644 L37.87318,66.7113333 C34.6381636,67.1323962 32.3522541,70.0930331 32.76033,73.3333333 L33.166135,76.5028 C33.411385,78.3833855 34.543132,80.0319317 36.20894,80.9350667 L36.049255,82.9986667 L38.358095,84.7176 L40.602475,89.2334667 L42.17149,84.062 L41.93123,83.1438667 L41.81989,82.016 C41.7760351,81.4948635 42.0346428,80.9947381 42.485,80.7297333 C44.4568652,79.5093981 45.5360882,77.2493357 45.246525,74.9466667" id="Path" fill="#DBAB77" fill-rule="nonzero"></path>
                    <path d="M45.246525,74.9466667 L44.84072,71.7757333 C44.5092593,69.2569529 42.612267,67.2292264 40.12342,66.7333333 L39.2034,67.9066667 L40.34317,68.8937333 C41.0884969,69.5426341 41.5160592,70.4832712 41.51517,71.4721333 L41.51517,71.8197333 C41.5148522,72.3376609 41.8141847,72.8089025 42.28283,73.0282667 L43.53394,73.6149333 C43.7258814,73.7040212 43.8537589,73.8910978 43.8672033,74.1024763 C43.8806477,74.3138548 43.7775044,74.5156586 43.5984,74.6284 C43.5984,74.6284 43.019725,74.9716 43.00068,75.1461333 C43.0414799,75.360447 43.1257438,75.5641084 43.248265,75.7445333 C43.4646804,76.0689593 43.5808543,76.4500149 43.582285,76.8401333 L42.451305,77.0689333 L42.465955,77.4077333 C42.4769789,77.6602693 42.6090707,77.8919532 42.8206628,78.0298773 C43.032255,78.1678015 43.2973309,78.1950072 43.532475,78.1029333 L43.94414,77.9416 C43.9814113,77.9383944 44.0179721,77.9294911 44.05255,77.9152 L44.99308,77.5294667 C45.2683499,76.6970702 45.3529688,75.8133246 45.240665,74.9437333" id="Path" fill="#BA8C57" fill-rule="nonzero"></path>
                    <path d="M44.707405,78.2334667 L43.78592,78.9330667 C42.9478689,79.5698246 41.8608324,79.7781481 40.84713,79.4962667 L38.27459,78.7629333 C38.187648,78.7378372 38.0945112,78.7723106 38.0447861,78.8479923 C37.9950609,78.923674 38.0003232,79.0229456 38.05777,79.0929333 L38.92212,80.1401333 C39.4835591,80.8210144 39.812628,81.6638957 39.861185,82.5454667 L40.12342,88.2728 L40.602475,89.2364 L42.17149,84.0649333 L41.93123,83.1468 L41.81989,82.0189333 C41.7745019,81.4967082 42.0333614,80.9949541 42.485,80.7297333 C43.4452045,80.1322514 44.2163592,79.2742685 44.70887,78.2554667 L44.707405,78.2334667 Z" id="Path" fill="#BA8C57" fill-rule="nonzero"></path>
                    <path d="M39.155055,73.1998667 C39.1550542,73.4230474 39.0206873,73.6242243 38.8146726,73.7094942 C38.6086579,73.7947642 38.3716172,73.7473136 38.214194,73.589291 C38.0567708,73.4312683 38.0100055,73.1938325 38.0957269,72.9878113 C38.1814482,72.78179 38.3827537,72.6478064 38.60568,72.6484 C38.7516375,72.6483995 38.8915956,72.706547 38.9946657,72.8100095 C39.0977357,72.9134719 39.1554442,73.0537436 39.155055,73.1998667" id="Path" fill="#282828" fill-rule="nonzero"></path>
                    <path d="M44.27523,72.2832 C44.2758225,72.5065133 44.1418322,72.7081403 43.9358649,72.7938728 C43.7298977,72.8796053 43.4926167,72.8325174 43.3348892,72.6746105 C43.1771618,72.5167037 43.1301275,72.2791528 43.2157625,72.0729511 C43.3013976,71.8667495 43.5027955,71.7326069 43.725855,71.7332 C44.0292664,71.7332 44.27523,71.9794434 44.27523,72.2832" id="Path" fill="#282828" fill-rule="nonzero"></path>
                    <path d="M40.505785,75.9616 L40.259665,77.0806667 C40.259665,77.0806667 39.714685,76.2329333 40.505785,75.9616" id="Path" fill="#CB8C84" fill-rule="nonzero"></path>
                    <polygon id="Path" fill="#D2D2D2" fill-rule="nonzero" points="38.358095 84.7146667 36.937045 86.9704 39.881695 87.78"></polygon>
                    <g id="Clipped" transform="translate(33.695000, 81.669056)">
                        <mask id="mask-6" fill="white">
                            <use xlink:href="#path-5"></use>
                        </mask>
                        <g id="Path"></g>
                        <path d="M8.762165,4.46827759 L8.45305,5.21774425 L9.30861,8.83454425 C9.53929987,9.80804722 9.52772956,10.8233637 9.274915,11.7913443 L9.210455,12.0348109 C8.83098093,13.4817 7.93438076,14.7388902 6.690655,15.5680109 L6.473835,20.2745443 L9.17676,20.3962776 L12.026185,8.77001092 L8.762165,4.46827759 Z" id="Path" fill="#D2D2D2" fill-rule="nonzero" mask="url(#mask-6)"></path>
                    </g>
                    <polygon id="Path" fill="#D2D2D2" fill-rule="nonzero" points="43.725855 83.4782667 43.813755 86.3368 42.63736 85.6665333"></polygon>
                    <path d="M37.235905,105.7584 L34.549095,104.9444 C34.4409356,104.911251 34.3264728,104.904215 34.215075,104.923867 C34.215075,104.923867 31.21915,105.338933 30.605315,105.284667 L30.476395,105.108667 L30.4134,105.255333 C30.0164905,106.047955 29.3852432,106.698869 28.60559,107.119467 L29.24726,107.801467 C30.0824344,108.688173 31.4495467,108.805595 32.42338,108.074267 L33.215945,107.480267 L34.25463,107.911467 L34.613555,108.8252 C34.7361246,109.129212 35.0453589,109.314844 35.37096,109.279867 L35.64052,109.2476 L35.23032,107.437733 L34.259025,106.9552 L35.56434,107.194267 L36.19136,108.135867 C36.4005931,108.451304 36.7957354,108.586178 37.153865,108.4644 L37.446865,108.364667 L36.90628,107.191333 L37.112845,107.4348 C37.3657864,107.730735 37.7829544,107.825003 38.138345,107.666533 L38.37714,107.559467 L37.235905,105.7584 Z" id="Path" fill="#DBAB77" fill-rule="nonzero"></path>
                    <path d="M37.99624,66.4150667 C36.859869,66.4771566 35.764501,66.861175 34.8377,67.5224 C34.1161227,66.6651949 32.9200597,66.380162 31.8900969,66.8199589 C30.8601341,67.2597559 30.2377454,68.3212725 30.3562689,69.4359832 C30.4747925,70.550694 31.3064404,71.4572557 32.4058,71.6701333 C32.3198584,72.0997894 32.2596858,72.5342109 32.225605,72.9710667 C31.8916953,76.1744891 33.4460932,79.280526 36.20894,80.9306667 C36.20894,80.9306667 33.834175,78.9316 35.10726,76.5218667 C35.181975,76.3752 35.25376,76.2417333 35.310895,76.1068 C35.439815,77.5162667 35.58485,78.9037333 35.69912,79.5182667 C36.6740596,77.1649465 36.8009523,74.5453897 36.058045,72.1086667 C36.0131261,71.3704088 36.0743034,70.6295183 36.239705,69.9086667 C36.825705,67.5414667 40.772415,67.6910667 42.05136,69.1416 C42.7147353,70.0882773 43.7345371,70.7237309 44.87588,70.9016 C43.98223,67.4212 41.786195,66.1158667 37.99038,66.4062667 M34.247305,76.5086667 C32.56109,75.8164 33.06505,73.2409333 34.440685,73.3670667 C34.5851566,74.4167361 34.5194186,75.4846984 34.247305,76.5086667" id="Shape" fill="#5B2D1A" fill-rule="nonzero"></path>
                    <path d="M34.21361,76.2974667 L32.98594,77.5250667 L34.21361,78.7541333 L35.439815,77.5250667 L34.21361,76.2974667 Z M33.62761,77.5250667 L34.21361,76.9457333 L34.792285,77.5250667 L34.21361,78.1117333 L33.62761,77.5250667 Z" id="Shape" fill="#F5F5F5" fill-rule="nonzero"></path>
                    <path d="M40.88522,76.3517333 L44.440775,75.7562667 L44.344085,75.9601333 C44.1540831,76.4690984 43.7472179,76.8666908 43.2343844,77.0445429 C42.7215509,77.2223951 42.1562043,77.1619686 41.692435,76.8797333 L40.88522,76.3517333 Z" id="Path" fill="#F5F5F5" fill-rule="nonzero"></path>
                    <path d="M45.510225,72.2758667 L45.38863,71.5146667 C45.357044,71.3135306 45.2462867,71.1334466 45.0811102,71.0146598 C44.9159338,70.8958731 44.7101076,70.848286 44.50963,70.8825333 L42.31213,71.2477333 C42.2307204,71.2638156 42.1552435,71.3018505 42.093845,71.3577333 L41.833075,71.2653333 C41.4034229,71.1149126 40.9280121,71.1769223 40.5512,71.4325333 L40.236225,71.6481333 C40.1740119,71.6295994 40.1084704,71.6250914 40.04431,71.6349333 L37.247625,72.0749333 C37.101125,72.0984 34.14915,73.3494667 34.14915,73.3494667 C34.0857873,73.3689766 34.0387748,73.4225114 34.0275625,73.4879224 C34.0163503,73.5533335 34.0428452,73.619497 34.0960856,73.6590396 C34.149326,73.6985821 34.2202579,73.7047791 34.279535,73.6750667 L36.614745,72.7364 C36.6052202,72.8064771 36.6052202,72.8775229 36.614745,72.9476 L36.73634,73.7088 C36.8171976,74.2037063 37.243351,74.5677131 37.74426,74.5697333 C37.7982428,74.5696545 37.8521323,74.5652404 37.90541,74.5565333 L39.887555,74.2397333 C40.1551623,74.1983164 40.3948678,74.0508408 40.552665,73.8305333 C40.7112323,73.6107646 40.7765359,73.3371267 40.734325,73.0693333 L40.564385,72.0045333 C40.5553618,71.9591728 40.5390339,71.9155822 40.51604,71.8754667 L40.748975,71.7156 C41.033673,71.5226007 41.3927915,71.4758241 41.71734,71.5894667 L41.938555,71.6686667 C41.9356294,71.699397 41.9356294,71.7303363 41.938555,71.7610667 L42.108495,72.8273333 L42.108495,72.8390667 L42.61392,73.1089333 C42.5287278,73.0142904 42.4723099,72.8972555 42.451305,72.7716 L42.2799,71.72 C42.2756513,71.6925835 42.2825066,71.6646032 42.298945,71.6422667 C42.3150397,71.6201289 42.3393005,71.6053447 42.366335,71.6012 L44.572625,71.2345333 C44.594087,71.2330755 44.615623,71.2330755 44.637085,71.2345333 C44.8387877,71.2348017 45.010589,71.3813404 45.04289,71.5806667 L45.16302,72.3418667 C45.1923637,72.5173119 45.1495616,72.6971792 45.044355,72.8405333 C44.9399417,72.9858652 44.7815811,73.0831036 44.604855,73.1104 L43.2175,73.3333333 C43.151543,73.3443559 43.084217,73.3443559 43.01826,73.3333333 L43.57496,73.6266667 L44.66492,73.4418667 C45.2214196,73.3503848 45.5997068,72.8262081 45.51169,72.2685333 M40.268455,73.6252 C40.1632076,73.7693706 40.0051616,73.8658884 39.828955,73.8936 L37.84681,74.2104 C37.4821688,74.2676279 37.1398264,74.019262 37.080615,73.6545333 L36.95902,72.8918667 C36.9246487,72.6682881 37.0760683,72.4585425 37.2989,72.4210667 L40.09705,71.981061 L40.113165,71.981061 C40.1637385,71.9805325 40.2069229,72.0175003 40.21425,72.0676 L40.38419,73.1324 C40.4136039,73.3083097 40.3708135,73.4886567 40.265525,73.6325333" id="Shape" fill="#737373" fill-rule="nonzero"></path>
                    <path d="M65.75506,80.2853333 L65.74041,80.2574667 C65.73162,80.2413333 65.7199,80.2266667 65.71111,80.2105333 L58.91351,85.6826667 C58.5126742,86.0067815 57.9525864,86.0465825 57.51004,85.7824 C57.4083552,85.721952 57.2832592,85.7162435 57.176503,85.7671796 C57.0697469,85.8181158 56.9953885,85.9189893 56.978245,86.0361333 L56.90939,86.504 C56.8600083,86.8398329 56.6755065,87.1408075 56.3987764,87.3369554 C56.1220462,87.5331032 55.7771946,87.6073372 55.44439,87.5424 L47.51288,86.0346667 L48.97788,89.0032 L56.86251,88.6893333 C57.1764114,88.6763591 57.4765704,88.556883 57.713675,88.3505333 L65.98067,81.1638667 C65.9800102,80.8566444 65.9035155,80.5543478 65.75799,80.2838667" id="Path" fill="#000000" fill-rule="nonzero"></path>
                    <path d="M30.08231,95.0077333 L32.88339,92.9969333 C32.88339,92.9969333 32.386755,96.316 30.886595,97.262 C30.54765,96.5378334 30.27834,95.7830057 30.08231,95.0077333" id="Path" fill="#000000" fill-rule="nonzero"></path>
                    <ellipse id="Oval" fill="#D2D2D2" fill-rule="nonzero" cx="41.50052" cy="103.977867" rx="1" ry="1"></ellipse>
                    <path d="M93.392285,157.6828 L118.420345,157.6828 C120.44835,157.672351 122.388722,156.853855 123.812688,155.408179 C125.236654,153.962503 126.026988,152.008659 126.009344,149.9784 L126.009344,110.903467 L118.865705,121.632133 C118.719205,121.623333 118.572705,121.617467 118.426205,121.617467 L93.392285,121.617467 C89.1497289,121.633569 85.7153527,125.074473 85.7025,129.321867 L85.7025,149.9784 C85.7153706,154.228074 89.1533002,157.669915 93.398145,157.6828" id="Path" fill="#ED8422" fill-rule="nonzero"></path>
                    <path d="M118.434995,150.931733 C116.973408,146.669521 112.865383,143.894797 108.370445,144.133733 L97.276,145.933333 C90.26744,148.133333 88.72919,153.099467 88.431795,155.855333 C89.8149255,157.035046 91.5723216,157.683381 93.389355,157.684267 L118.420345,157.684267 C119.171728,157.684267 119.918869,157.571529 120.63689,157.349867 L118.434995,150.931733 Z" id="Path" fill="#00B294" fill-rule="nonzero"></path>
                    <path d="M106.958185,141.448267 L106.931815,141.220933 C109.72622,139.2019 111.012272,135.68374 110.17972,132.335867 L107.286345,120.7184 L98.760045,122.846533 C96.6795955,123.365503 94.8903653,124.690785 93.786125,126.530711 C92.6818848,128.370638 92.3531291,130.574425 92.87221,132.657067 L93.174,133.87 L93.0275,133.906667 C91.8543091,134.199083 91.1400309,135.388274 91.432115,136.5628 C91.7241991,137.737326 92.9120391,138.452416 94.08523,138.16 L94.42218,138.0764 C95.2769192,139.834875 96.71486,141.241793 98.490485,142.056933 C98.6082143,143.387663 98.2223381,144.714117 97.409315,145.773467 L97.283325,145.936267 L102.481145,147.482133 C104.252037,148.00863 106.165244,147.413221 107.3259,145.9744 L108.7909,144.164533 C107.781516,143.608641 107.103065,142.598276 106.969905,141.452667" id="Path" fill="#CE9C5F" fill-rule="nonzero"></path>
                    <path d="M106.958185,141.448267 L106.931815,141.220933 C106.931815,141.220933 106.920095,141.220933 106.914235,141.220933 C109.718975,139.207309 111.013037,135.684548 110.17972,132.331467 L109.54391,129.778 L106.90691,130.435067 C106.499372,130.537158 106.190234,130.870138 106.118293,131.284506 C106.046353,131.698874 106.225129,132.116757 106.574355,132.350533 L107.98222,133.230533 C108.228384,133.387452 108.358025,133.675687 108.312217,133.964227 C108.266408,134.252767 108.053891,134.486557 107.77126,134.559333 L105.595735,135.103467 L105.83453,136.064133 C107.033247,137.713324 107.169211,139.908377 106.1832,141.6932 L106.22129,141.668267 L106.205175,141.6844 C104.527158,142.657947 102.56451,143.020663 100.649895,142.711067 C102.271945,144.728 104.697786,145.928892 107.283415,145.994933 L107.31418,145.964133 L108.77918,144.154267 C107.769796,143.598374 107.091345,142.588009 106.958185,141.4424" id="Path" fill="#BA8C57" fill-rule="nonzero"></path>
                    <path d="M102.615925,136.8752 C103.30379,137.90098 104.559927,138.385297 105.757369,138.086417 C106.954811,137.787537 107.836824,136.769541 107.963175,135.540533 L102.615925,136.8752 Z" id="Path" fill="#FFFFFF" fill-rule="nonzero"></path>
                    <path d="M100.468235,132.916667 C100.580694,133.36802 100.306856,133.825301 99.8562136,133.938679 C99.4055709,134.052056 98.9483307,133.778708 98.8342929,133.327752 C98.7202551,132.876795 98.9924917,132.418557 99.442735,132.3036 C99.6599606,132.248138 99.8903086,132.281648 100.082782,132.396713 C100.275256,132.511778 100.413978,132.698906 100.468235,132.916667" id="Path" fill="#09538F" fill-rule="nonzero"></path>
                    <path d="M109.18938,130.740133 C109.301046,131.191541 109.026635,131.648251 108.575984,131.761025 C108.125333,131.873799 107.668547,131.600068 107.554922,131.149151 C107.441297,130.698234 107.713723,130.240334 108.16388,130.1256 C108.381328,130.069771 108.612046,130.103302 108.804662,130.218727 C108.997277,130.334153 109.135798,130.521889 109.18938,130.740133" id="Path" fill="#09538F" fill-rule="nonzero"></path>
                    <path d="M109.52633,126.338667 C110.238161,126.297413 110.944503,126.188886 111.63593,126.014533 C110.759006,125.232468 110.114255,124.223645 109.77245,123.0988 C108.933131,121.029219 106.698298,119.895824 104.535075,120.442667 L98.155,122.035467 C95.9774674,122.577994 94.1046223,123.964774 92.948907,125.890407 C91.7931918,127.816039 91.4493884,130.1226 91.99321,132.302133 L92.45322,134.150133 C92.6317274,134.041305 92.8252131,133.959277 93.0275,133.906667 L93.92408,133.683733 L94.7562,137.026267 L96.533245,136.586267 L95.727495,133.3508 C96.91414,132.980007 98.0429412,132.444339 99.08088,131.759467 L100.93557,131.297467 C101.083429,131.260525 101.20037,131.147419 101.242344,131.000753 C101.284318,130.854087 101.244947,130.696144 101.139062,130.58642 C101.033177,130.476695 100.876864,130.431859 100.729005,130.4688 L100.57518,130.506933 C102.160285,128.844678 102.923835,126.562176 102.65841,124.279467 C103.44951,129.472933 107.667245,128.0928 107.667245,128.0928 L104.297745,124.9952 C105.60722,125.857804 107.134271,126.330783 108.701535,126.3592 L109.199635,128.3568 L106.19199,129.106267 C105.96342,129.163373 105.824369,129.39517 105.88141,129.624 C105.938451,129.85283 106.169985,129.99204 106.398555,129.934933 L109.4062,129.184 L109.6992,130.388133 C111.182015,130.026776 112.327388,128.847616 112.64678,127.3536 C111.4572,128.023867 110.362845,127.302267 109.53219,126.343067" id="Path" fill="#000000" fill-rule="nonzero"></path>
                    <path d="M103.12135,135.750267 C102.573087,135.611763 101.99888,135.848829 101.707513,136.33398 C101.416146,136.819131 101.476285,137.438033 101.85559,137.857867 L103.12135,135.750267 Z" id="Path" fill="#BA8C57" fill-rule="nonzero"></path>
                    <path d="M122.94866,133.739467 L107.588135,148.846133 C107.215349,149.214313 107.210109,149.814958 107.576415,150.1896 L117.605805,160.407867 C117.973566,160.781077 118.573529,160.786323 118.947745,160.4196 L134.306805,145.312933 C134.68038,144.9448 130.17404,138.664533 129.80779,138.292 L129.47377,137.951733 C129.106055,137.577733 123.32077,133.3728 122.94866,133.740933" id="Path" fill="#B2B2B2" fill-rule="nonzero"></path>
                    <path d="M134.85911,143.44 L129.80779,138.293467 L113.098,154.733333 L112.993985,154.627733 L118.14932,159.879867 C118.516741,160.253881 119.11737,160.259132 119.49126,159.8916 L134.85032,144.784933 C135.223909,144.417094 135.229155,143.815782 134.86204,143.441467" id="Path" fill="#D2D2D2" fill-rule="nonzero"></path>
                    <path d="M129.47377,137.950267 L129.68766,138.167333 L124.82972,133.2188 C124.653716,133.038915 124.413426,132.936572 124.161915,132.934334 C123.910405,132.932169 123.668364,133.03029 123.489245,133.207067 L108.12872,148.313733 C107.755934,148.681913 107.750694,149.282558 108.117,149.6572 L112.76105,154.3872 L129.47377,137.950267 Z" id="Path" fill="#D2D2D2" fill-rule="nonzero"></path>
                    <path d="M123.15669,144.164533 L123.25045,133.441733 L108.12872,148.318133 C107.949398,148.494532 107.84742,148.735026 107.845186,148.986703 C107.843024,149.23838 107.940786,149.480622 108.117,149.660133 L112.76105,154.3916 L123.15669,144.164533 Z" id="Path" fill="#E6E6E6" fill-rule="nonzero"></path>
                    <path d="M113.098,154.733333 L118.14932,159.879867 C118.516741,160.253881 119.11737,160.259132 119.49126,159.8916 L123.052675,156.387733 L123.15376,144.8392 L113.098,154.733333 Z" id="Path" fill="#E6E6E6" fill-rule="nonzero"></path>
                    <polygon id="Rectangle" fill="#B2B2B2" fill-rule="nonzero" transform="translate(123.035798, 149.039964) rotate(-44.513000) translate(-123.035798, -149.039964) " points="122.480568 148.485456 123.591659 148.484825 123.591029 149.594471 122.479938 149.595103"></polygon>
                    <polygon id="Rectangle" fill="#B2B2B2" fill-rule="nonzero" transform="translate(123.947742, 148.143129) rotate(-44.513000) translate(-123.947742, -148.143129) " points="123.392512 147.588622 124.503603 147.58799 124.502973 148.697637 123.391882 148.698268"></polygon>
                    <polygon id="Rectangle" fill="#B2B2B2" fill-rule="nonzero" transform="translate(124.844108, 149.052564) rotate(-44.496000) translate(-124.844108, -149.052564) " points="124.288878 148.498056 125.399969 148.497425 125.399338 149.607072 124.288247 149.607703"></polygon>
                    <polygon id="Rectangle" fill="#B2B2B2" fill-rule="nonzero" transform="translate(123.931784, 149.953835) rotate(-44.495000) translate(-123.931784, -149.953835) " points="123.376554 149.399327 124.487644 149.398695 124.487013 150.508342 123.375923 150.508974"></polygon>
                    <path d="M127.85934,153.609867 L127.49309,150.236533 C127.450607,149.818797 127.091458,149.505846 126.672325,149.521344 C126.253192,149.536842 125.918082,149.875464 125.906495,150.2952 L125.818595,152.7328 L125.270685,150.371467 C125.195439,149.889506 124.744178,149.559868 124.262765,149.6352 C123.781352,149.710532 123.452089,150.162306 123.527335,150.644267 L123.752945,153.3708 L123.336885,152.135867 C123.187229,151.743142 122.761846,151.530844 122.358507,151.647582 C121.955168,151.76432 121.70856,152.171111 121.79131,152.5832 L122.642475,156.783733 L122.51795,156.906933 L121.22289,154.547067 C121.013811,154.173277 120.553223,154.022649 120.164053,154.200791 C119.774884,154.378932 119.587371,154.826226 119.732985,155.229067 L120.937215,158.455733 L120.2472,159.1348 L119.48833,159.881333 L121.97883,159.950323 C123.428253,159.957825 124.776613,159.207822 125.53585,157.971733 L127.59564,154.614533 L127.59564,154.614533 C127.803204,154.32208 127.8965,153.963605 127.857875,153.606933" id="Path" fill="#CE9C5F" fill-rule="nonzero"></path>
                    <path d="M224.86871,59.4132 C224.86871,60.0271934 224.371536,60.5249333 223.75824,60.5249333 C223.144944,60.5249333 222.64777,60.0271934 222.64777,59.4132 C222.64777,58.7992066 223.144944,58.3014667 223.75824,58.3014667 C224.371536,58.3014667 224.86871,58.7992066 224.86871,59.4132" id="Path" fill="#FFB900" fill-rule="nonzero"></path>
                    <path d="M216.85516,79.1794667 C216.855753,79.4358666 216.701933,79.6673499 216.46549,79.7658814 C216.229046,79.8644129 215.956593,79.8105674 215.775287,79.629475 C215.593981,79.4483826 215.539565,79.1757453 215.637436,78.9388051 C215.735308,78.7018649 215.966171,78.547334 216.22228,78.5473333 C216.389995,78.5469438 216.550975,78.6133713 216.669705,78.7319616 C216.788435,78.8505518 216.85516,79.0115601 216.85516,79.1794667" id="Path" fill="#FFFFFF" fill-rule="nonzero"></path>
                    <path d="M179.12262,100.362533 C179.12262,100.714081 178.837958,100.999067 178.48681,100.999067 C178.135662,100.999067 177.851,100.714081 177.851,100.362533 C177.851,100.010986 178.135662,99.726 178.48681,99.726 C178.837958,99.726 179.12262,100.010986 179.12262,100.362533" id="Path" fill="#FFFFFF" fill-rule="nonzero"></path>
                    <path d="M179.736455,47.6373333 C179.736455,47.9849552 179.527291,48.2983479 179.206495,48.431377 C178.885699,48.5644061 178.516447,48.4908738 178.270921,48.245068 C178.025394,47.9992623 177.951946,47.6295904 178.084824,47.3084297 C178.217702,46.987269 178.530738,46.7778667 178.877965,46.7778667 C179.352096,46.7778667 179.736455,47.162663 179.736455,47.6373333" id="Path" fill="#C2C2C2" fill-rule="nonzero"></path>
                    <path d="M136.776795,27.7522667 C136.776795,28.2933584 136.338652,28.732 135.798175,28.732 C135.257698,28.732 134.819555,28.2933584 134.819555,27.7522667 C134.819555,27.2111749 135.257698,26.7725333 135.798175,26.7725333 C136.338652,26.7725333 136.776795,27.2111749 136.776795,27.7522667" id="Path" fill="#C2C2C2" fill-rule="nonzero"></path>
                    <path d="M160.873115,35.6986667 C160.592452,34.427373 159.585656,33.4436224 158.309365,33.1936 C159.585471,32.9432245 160.592104,31.9596331 160.873115,30.6885333 C161.153212,31.9596025 162.159489,32.9434085 163.4354,33.1936 C162.159118,33.4430837 161.152514,34.4272093 160.873115,35.6986667" id="Path" fill="#C2C2C2" fill-rule="nonzero"></path>
                    <path d="M254.617,61.1306667 C254.274469,59.5681475 253.038265,58.3581933 251.47018,58.0506667 C253.038265,57.74314 254.274469,56.5331858 254.617,54.9706667 C254.95988,56.5329919 256.195921,57.742786 257.76382,58.0506667 C256.195921,58.3585473 254.95988,59.5683415 254.617,61.1306667" id="Path" fill="#FFB900" fill-rule="nonzero"></path>
                    <path d="M142.795015,52.3805333 C142.795015,52.730461 142.511665,53.0141333 142.162135,53.0141333 C141.812605,53.0141333 141.529255,52.730461 141.529255,52.3805333 C141.529255,52.0306057 141.812605,51.7469333 142.162135,51.7469333 C142.511665,51.7469333 142.795015,52.0306057 142.795015,52.3805333" id="Path" fill="#C2C2C2" fill-rule="nonzero"></path>
                    <path d="M234.934725,71.4384 C234.934725,71.9965021 234.482808,72.4489333 233.92534,72.4489333 C233.367872,72.4489333 232.915955,71.9965021 232.915955,71.4384 C232.915955,70.8802979 233.367872,70.4278667 233.92534,70.4278667 C234.482808,70.4278667 234.934725,70.8802979 234.934725,71.4384" id="Path" fill="#C2C2C2" fill-rule="nonzero"></path>
                    <path d="M203.4885,26.1609333 C203.4885,26.4849404 203.226139,26.7476 202.9025,26.7476 C202.578861,26.7476 202.3165,26.4849404 202.3165,26.1609333 C202.3165,25.8369263 202.578861,25.5742667 202.9025,25.5742667 C203.226139,25.5742667 203.4885,25.8369263 203.4885,26.1609333" id="Path" fill="#C2C2C2" fill-rule="nonzero"></path>
                    <path d="M198.535336,59.9456 C198.535927,60.3563685 198.289145,60.7269926 197.910189,60.8844611 C197.531233,61.0419295 197.094833,60.9551894 196.804705,60.6647319 C196.514578,60.3742743 196.427936,59.937378 196.585226,59.5579905 C196.742515,59.1786031 197.112718,58.9315402 197.52302,58.9321323 C198.081772,58.9329411 198.534528,59.3862128 198.535336,59.9456" id="Path" fill="#FFB900" fill-rule="nonzero"></path>
                    <path d="M237.119041,40.6266667 C237.118231,41.218598 236.638409,41.6978725 236.04715,41.6973333 C235.455891,41.6967932 234.976942,41.2166436 234.977211,40.6247118 C234.97748,40.03278 235.456866,39.5530667 236.048125,39.5530667 C236.332403,39.5530667 236.605017,39.6662243 236.805895,39.8676056 C237.006772,40.0689869 237.119429,40.3420652 237.119041,40.6266667" id="Path" fill="#C2C2C2" fill-rule="nonzero"></path>
                    <path d="M38.5382911,30.4201333 C38.5382911,30.8165318 38.2996976,31.1738706 37.9338325,31.3254284 C37.5679674,31.4769861 37.1469308,31.3928952 36.867163,31.1123892 C36.5873953,30.8318832 36.5040307,30.4102421 36.6559642,30.0441882 C36.8078976,29.6781343 37.1651874,29.4398066 37.561135,29.4403989 C37.8205466,29.4403989 38.0693121,29.5436681 38.2526064,29.727446 C38.4359007,29.9112239 38.5386789,30.1604269 38.5382911,30.4201333" id="Path" fill="#C6C6C6" fill-rule="nonzero"></path>
                    <path d="M51.63246,60.8388 C51.63246,61.3798918 51.1943169,61.8185333 50.65384,61.8185333 C50.1133631,61.8185333 49.67522,61.3798918 49.67522,60.8388 C49.67522,60.2977082 50.1133631,59.8590667 50.65384,59.8590667 C51.1943169,59.8590667 51.63246,60.2977082 51.63246,60.8388" id="Path" fill="#C6C6C6" fill-rule="nonzero"></path>
                    <path d="M68.783215,53.7049333 C68.783215,54.056841 68.5713927,54.3740697 68.2465851,54.5086015 C67.9217774,54.6431333 67.548,54.5684534 67.2996563,54.3194072 C67.0513127,54.070361 66.9773486,53.6960329 67.1122755,53.3710833 C67.2472024,53.0461336 67.5644277,52.8346066 67.915935,52.8351988 C68.3951574,52.8360091 68.783215,53.2251651 68.783215,53.7049333" id="Path" fill="#C6C6C6" fill-rule="nonzero"></path>
                    <path d="M33.7243,38.8241333 C33.7242993,39.0805339 33.5699441,39.3116597 33.3332731,39.4096424 C33.0966021,39.5076251 32.8242746,39.4531476 32.643388,39.271635 C32.4625014,39.0901225 32.4087171,38.8173596 32.5071366,38.5806471 C32.6055562,38.3439346 32.8367765,38.1899398 33.092885,38.1905333 C33.2606008,38.1905329 33.4214261,38.2573337 33.5398816,38.3761991 C33.6583371,38.4950645 33.7246891,38.6562272 33.7243,38.8241333" id="Path" fill="#C6C6C6" fill-rule="nonzero"></path>
                    <path d="M87.82968,77.3050667 C87.82968,77.6679546 87.5358355,77.9621333 87.17336,77.9621333 C86.8108845,77.9621333 86.51704,77.6679546 86.51704,77.3050667 C86.51704,76.9421788 86.8108845,76.648 87.17336,76.648 C87.3475462,76.6476094 87.5147105,76.7167105 87.6378791,76.8400192 C87.7610476,76.9633278 87.8300701,77.1306823 87.82968,77.3050667" id="Path" fill="#FFFFFF" fill-rule="nonzero"></path>
                    <path d="M163.135075,132.372533 C163.135075,132.724081 162.850413,133.009067 162.499265,133.009067 C162.148117,133.009067 161.863455,132.724081 161.863455,132.372533 C161.863455,132.020986 162.148117,131.736 162.499265,131.736 C162.850413,131.736 163.135075,132.020986 163.135075,132.372533" id="Path" fill="#FFFFFF" fill-rule="nonzero"></path>
                    <path d="M71.8436,125.3208 C71.8447863,125.586822 71.6856333,125.827312 71.4404797,125.929938 C71.195326,126.032564 70.9125518,125.977075 70.7242376,125.789388 C70.5359234,125.601701 70.4792323,125.318856 70.5806441,125.072967 C70.6820559,124.827078 70.9215573,124.666669 71.18728,124.666667 C71.5497555,124.666667 71.8436,124.960845 71.8436,125.323733" id="Path" fill="#FFFFFF" fill-rule="nonzero"></path>
                    <path d="M64.94931,19.6929333 C64.6692127,18.4218642 63.6629356,17.4380582 62.387025,17.1878667 C63.6629356,16.9376751 64.6692127,15.9538692 64.94931,14.6828 C65.2303212,15.9538998 66.236954,16.9374911 67.51306,17.1878667 C66.236954,17.4382422 65.2303212,18.4218335 64.94931,19.6929333" id="Path" fill="#9080CF" fill-rule="nonzero"></path>
                </g>
            </g>
        </g>
    </g>
</svg>